<svg width="1512" height="282" viewBox="0 0 1512 282" fill="none" xmlns="http://www.w3.org/2000/svg">
<path d="M-2 114.241C62 65.4081 145 0.241455 278 0.241455C314.66 0.241455 357 12.9538 397 35.2415C523 105.448 683.142 203.459 843.5 216.241C1008.98 229.432 1336.67 105.075 1511.5 8.24146V77.7415C1329.84 171.702 1047.36 271.741 912.5 280.741C887.917 282.382 801.531 282.461 791.5 280.741C624.5 252.113 413.465 99.9045 358 75.7415C341.103 68.3805 293.5 58.2415 269.5 58.2415C176 48.7415 68.5 134.241 -2 189.241V158.241V114.241Z" fill="#D9D06E"/>
<path d="M21.9937 138.701C21.4022 139.152 20.5803 139.025 20.1436 138.452L11.6268 127.29C11.2046 126.737 11.284 125.892 11.8755 125.44C12.467 124.989 13.3034 125.136 13.7256 125.689L17.9039 131.165L19.3544 120.247C19.4538 119.507 20.1026 119.012 20.8426 119.111C21.549 119.206 22.0586 119.874 21.9782 120.6L20.9689 127.981L29.4412 130.301C30.1576 130.449 30.5908 131.175 30.4095 131.887C30.3498 132.204 30.179 132.455 29.931 132.645C29.6448 132.863 29.2567 132.948 28.8575 132.86L20.6162 130.605L20.1751 134.141L22.2424 136.851C22.6791 137.423 22.5852 138.25 21.9937 138.701Z" fill="white"/>
<path d="M38.3215 126.366C37.0024 127.367 35.4728 127.654 33.9306 127.409C32.4701 127.192 31.0735 126.383 30.0579 125.045C29.0713 123.745 28.7123 122.24 28.8379 120.698C29.0163 119.147 29.7044 117.751 31.0235 116.75C32.2853 115.792 33.8531 115.476 35.3189 115.78C36.8756 116.045 38.2096 116.81 39.1962 118.11C40.2118 119.448 40.6334 120.996 40.4115 122.49C40.3096 123.984 39.5833 125.409 38.3215 126.366ZM31.321 120.953C31.2731 121.803 31.5469 122.68 32.1417 123.464C32.7656 124.286 33.5219 124.766 34.3679 124.968C35.1941 125.064 36.0136 124.834 36.74 124.282C37.4092 123.775 37.8323 123.062 37.9621 122.24C38.0338 121.342 37.7936 120.47 37.1697 119.648C36.5748 118.864 35.7849 118.379 34.9152 118.225C34.118 118.168 33.2741 118.326 32.605 118.834C31.8785 119.385 31.4798 120.17 31.321 120.953Z" fill="white"/>
<path d="M50.5169 117.19C47.8597 119.167 44.0216 118.672 42.0589 116.034C40.0676 113.358 40.7111 109.559 43.354 107.563C44.5093 106.703 45.9028 106.324 47.2035 106.344C47.9043 106.361 48.4684 106.958 48.4754 107.611C48.4342 108.36 47.8753 108.895 47.1745 108.878C46.4017 108.885 45.5993 109.093 44.8869 109.623C43.3272 110.783 42.9969 113.033 44.1 114.516C45.2031 115.999 47.4387 116.31 48.9984 115.149C49.6916 114.633 50.1408 113.91 50.3692 113.172C50.5493 112.53 51.242 112.134 51.971 112.309C52.5942 112.504 52.9756 113.177 52.8193 113.892C52.4354 115.105 51.6723 116.331 50.5169 117.19Z" fill="white"/>
<path d="M55.1308 105.538L58.3096 109.933C58.7456 110.536 58.597 111.354 57.9942 111.79C57.508 112.142 56.8465 112.087 56.3868 111.738C56.3111 111.675 56.2214 111.591 56.151 111.494L47.8525 100.021C47.4164 99.4179 47.565 98.5995 48.1484 98.1776C48.7513 97.7415 49.575 97.8566 50.011 98.4595L52.4584 101.843C52.8416 101.062 53.3729 100.323 54.1313 99.7742C56.4843 98.0723 59.7631 98.6332 61.4509 100.967L64.6297 105.362C65.0657 105.964 64.9366 106.769 64.3337 107.205C63.7309 107.641 62.9266 107.512 62.4906 106.909L59.3118 102.514C58.4819 101.367 56.8734 101.108 55.6925 101.933C54.5592 102.782 54.3204 104.377 55.1308 105.538Z" fill="white"/>
<path d="M70.5039 89.9699L73.2022 93.8523L75.8869 97.7149C76.2841 98.2865 76.1399 99.0882 75.5683 99.4854C75.0559 99.8415 74.4015 99.741 73.9546 99.3502C73.5755 100.403 72.9078 101.335 71.9224 102.019C70.5823 102.951 69.0361 103.207 67.5723 102.909C66.0948 102.592 64.7528 101.712 63.8214 100.372C62.8763 99.0123 62.5198 97.448 62.7509 95.9722C62.9682 94.4766 63.7337 93.097 65.0739 92.1656C66.0592 91.4807 67.1789 91.1994 68.2976 91.211C68.0735 90.6361 68.2074 89.9877 68.7198 89.6316C69.2913 89.2344 70.093 89.3786 70.5039 89.9699ZM71.7555 97.8682C71.8723 97.0271 71.6748 96.1122 71.1132 95.3042C70.538 94.4764 69.7493 93.9724 68.9338 93.8085C68.091 93.6051 67.2292 93.7949 66.5395 94.2743C65.83 94.7674 65.3517 95.509 65.2682 96.3561C65.1377 97.1776 65.3549 98.0788 65.9302 98.9065C66.4917 99.7145 67.2607 100.232 68.0898 100.416C68.8855 100.594 69.7474 100.404 70.4568 99.9107C71.1466 99.4313 71.6249 98.6896 71.7555 97.8682Z" fill="white"/>
<path d="M86.6234 92.3548C86.0187 92.7456 85.1891 92.5673 84.7983 91.9625L77.1134 80.0693C76.7096 79.4444 76.901 78.635 77.5057 78.2443C77.5259 78.2312 77.5259 78.2312 77.5662 78.2052C77.5662 78.2052 77.5662 78.2052 77.5864 78.1922L80.3682 76.3947C82.4847 75.027 85.3053 75.6333 86.673 77.7499C87.233 78.6167 87.4588 79.5852 87.3918 80.5428C89.0963 80.5273 90.7954 81.3439 91.7854 82.8759C93.3354 85.2747 92.6506 88.4603 90.272 89.9972L86.704 92.3027C86.6839 92.3157 86.6709 92.2956 86.6709 92.2956C86.6305 92.3216 86.6436 92.3418 86.6234 92.3548ZM80.0804 79.7524L82.1644 82.9776L83.898 81.8575C84.7849 81.2844 85.0085 80.0826 84.4354 79.1957C83.8623 78.3087 82.7009 78.0591 81.814 78.6322L80.0804 79.7524ZM83.6102 85.2152L86.3064 89.3879L88.8262 87.7597C89.9622 86.9971 90.3033 85.4908 89.5478 84.3217C88.8054 83.1727 87.292 82.8647 86.13 83.587L83.6102 85.2152Z" fill="white"/>
<path d="M101.254 83.3634C98.4311 85.0494 94.849 84.0517 93.1343 81.2743C91.4607 78.4719 92.2152 74.8128 95.0256 73.1063C97.6924 71.4869 101.014 72.1937 102.859 74.8635C102.872 74.884 102.897 74.925 102.922 74.9661C102.947 75.0071 103.009 75.1097 103.013 75.1631C103.251 75.6929 103.019 76.2827 102.445 76.6315L95.9214 80.5927C96.3105 81.0022 96.86 81.3986 97.441 81.5231C98.1708 81.7539 99.2156 81.6248 99.9709 81.2504C100.747 80.8635 101.517 80.1432 101.793 79.442C101.95 78.7291 102.828 78.28 103.294 78.4462C103.735 78.5715 104.314 79.0624 104.104 79.7797C103.659 81.3132 102.71 82.4789 101.254 83.3634ZM96.209 75.0551C94.5151 76.196 94.4134 77.9705 94.76 78.9113L100.565 75.386C99.8621 74.69 98.0809 74.115 96.209 75.0551Z" fill="white"/>
<path d="M112.884 64.4961L115.209 68.6129L117.522 72.7089C117.865 73.3149 117.646 74.0997 117.04 74.442C116.497 74.7488 115.855 74.5878 115.446 74.1571C114.971 75.1698 114.219 76.0352 113.174 76.6253C111.753 77.4279 110.19 77.539 108.76 77.1061C107.319 76.6523 106.064 75.6517 105.262 74.2306C104.448 72.7887 104.238 71.198 104.606 69.7501C104.962 68.2813 105.852 66.979 107.273 66.1765C108.318 65.5864 109.459 65.4105 110.572 65.5263C110.402 64.9331 110.596 64.3 111.139 63.9931C111.745 63.6509 112.53 63.8692 112.884 64.4961ZM113.395 72.4767C113.589 71.6501 113.478 70.7208 112.994 69.8639C112.498 68.9862 111.76 68.411 110.963 68.1718C110.143 67.8908 109.268 67.9995 108.536 68.4125C107.784 68.8374 107.238 69.5312 107.076 70.3669C106.87 71.1726 107.002 72.0901 107.498 72.9678C107.982 73.8247 108.699 74.4117 109.508 74.6718C110.283 74.9228 111.159 74.8141 111.911 74.3893C112.643 73.9762 113.188 73.2824 113.395 72.4767Z" fill="white"/>
<path d="M127.729 63.3906C128.994 65.8165 127.995 68.8822 125.547 70.1584C123.121 71.4234 120.078 70.4662 118.813 68.0402L116.161 62.9542C115.85 62.3584 116.083 61.56 116.7 61.2382C117.339 60.9053 118.106 61.1821 118.416 61.7779L121.069 66.864C121.701 68.0769 123.158 68.5352 124.371 67.9027C125.605 67.259 126.085 65.7909 125.474 64.5669L122.821 59.4808C122.511 58.885 122.701 58.1089 123.34 57.7759C123.936 57.4652 124.766 57.7087 125.077 58.3046L127.729 63.3906Z" fill="white"/>
<path d="M132.479 53.5591C133.129 53.2496 133.94 53.5015 134.26 54.1732C134.569 54.8233 134.264 55.6333 133.614 55.9428L133.072 56.2006L135.95 62.2465C136.622 61.9268 137.4 62.2209 137.72 62.8927C138.039 63.5645 137.767 64.3321 137.095 64.6519C135.773 65.2812 134.174 64.7135 133.545 63.3916L130.667 57.3457L130.038 57.6449C129.366 57.9647 128.588 57.6705 128.279 57.0204C127.959 56.3486 128.232 55.581 128.903 55.2612L129.532 54.962L128.036 51.8199C127.716 51.1481 128.01 50.3701 128.682 50.0504C129.354 49.7306 130.122 50.0031 130.441 50.6748L131.937 53.817L132.479 53.5591Z" fill="white"/>
<path d="M143.924 48.4884C144.559 48.2044 145.332 48.4634 145.626 49.1207L147.938 54.2916L149.328 57.4028C150.641 60.3388 149.347 63.6776 146.433 64.9804C145.644 65.333 144.735 65.4763 143.931 65.4415C143.2 65.4528 142.677 64.8715 142.666 64.1405C142.716 63.4873 143.353 62.9133 144.006 62.963C144.511 62.9741 144.976 62.8976 145.414 62.7017C146.697 62.1019 147.42 60.7795 147.262 59.4835C146.805 60.1083 146.138 60.6166 145.415 60.9399C142.895 62.0663 139.905 60.9055 138.779 58.3858L136.467 53.215C136.174 52.5577 136.496 51.8089 137.088 51.5444C137.767 51.2408 138.474 51.5292 138.768 52.1865L141.08 57.3574C141.648 58.6282 143.108 59.1319 144.357 58.5735C145.606 58.0152 146.183 56.6006 145.615 55.3298L143.303 50.159C143.01 49.5017 143.266 48.7823 143.924 48.4884Z" fill="white"/>
<path d="M171.511 51.097C170.808 51.3399 170.068 50.9607 169.833 50.2802L165.25 37.0092C165.023 36.3513 165.364 35.5734 166.067 35.3306C166.77 35.0877 167.518 35.4896 167.745 36.1474L169.994 42.6582L174.798 32.7472C175.124 32.0758 175.896 31.8095 176.567 32.1362C177.208 32.4481 177.482 33.2421 177.178 33.9057L173.903 40.5972L181.219 45.4596C181.853 45.8247 182.036 46.65 181.641 47.269C181.484 47.5515 181.243 47.7363 180.948 47.8381C180.608 47.9556 180.213 47.9143 179.862 47.7056L172.745 42.9777L171.216 46.1971L172.328 49.4184C172.563 50.099 172.215 50.8542 171.511 51.097Z" fill="white"/>
<path d="M190.208 45.5084C188.618 45.9707 187.087 45.691 185.735 44.9094C184.449 44.1834 183.435 42.9288 182.966 41.3156C182.51 39.7485 182.714 38.2146 183.383 36.8203C184.105 35.4356 185.248 34.3787 186.838 33.9164C188.359 33.4742 189.936 33.7405 191.196 34.549C192.554 35.3537 193.526 36.5459 193.981 38.113C194.45 39.7262 194.29 41.3225 193.547 42.6381C192.918 43.9959 191.729 45.0662 190.208 45.5084ZM185.61 37.9473C185.261 38.7237 185.203 39.6404 185.478 40.5853C185.766 41.5763 186.3 42.2958 187.017 42.7869C187.754 43.1725 188.602 43.251 189.478 42.9964C190.284 42.7619 190.935 42.2479 191.35 41.5273C191.739 40.7146 191.827 39.8142 191.539 38.8232C191.264 37.8783 190.7 37.1425 189.943 36.6877C189.22 36.3482 188.375 36.1939 187.568 36.4284C186.692 36.683 186.039 37.2728 185.61 37.9473Z" fill="white"/>
<path d="M203.971 42.0625C200.754 42.8514 197.41 40.9039 196.627 37.7106C195.832 34.4706 197.902 31.2201 201.113 30.4079C202.511 30.0649 203.942 30.2576 205.133 30.781C205.772 31.0691 206.06 31.8387 205.813 32.443C205.484 33.1167 204.761 33.3929 204.122 33.1048C203.407 32.8106 202.587 32.6905 201.724 32.902C199.836 33.3651 198.658 35.3098 199.098 37.1046C199.538 38.8994 201.477 40.0548 203.365 39.5918C204.204 39.386 204.899 38.8943 205.397 38.3028C205.812 37.7808 206.604 37.6853 207.208 38.1304C207.706 38.5518 207.796 39.3205 207.374 39.9182C206.549 40.8866 205.37 41.7195 203.971 42.0625Z" fill="white"/>
<path d="M212.409 33.4959L213.496 38.8099C213.645 39.5389 213.172 40.2234 212.443 40.3724C211.855 40.4926 211.275 40.1703 211 39.6631C210.957 39.5739 210.91 39.4611 210.886 39.3435L208.049 25.4705C207.9 24.7416 208.373 24.0571 209.078 23.9128C209.807 23.7638 210.51 24.208 210.659 24.9369L211.496 29.0283C212.167 28.4747 212.955 28.0195 213.872 27.832C216.718 27.2503 219.474 29.1119 220.051 31.9335L221.138 37.2476C221.287 37.9765 220.838 38.6562 220.109 38.8053C219.38 38.9543 218.7 38.5053 218.551 37.7764L217.465 32.4623C217.181 31.075 215.822 30.1771 214.406 30.442C213.024 30.7492 212.149 32.1037 212.409 33.4959Z" fill="white"/>
<path d="M233.014 26.0672L233.766 30.7349L234.515 35.379C234.626 36.0661 234.149 36.7264 233.462 36.8372C232.846 36.9366 232.299 36.5628 232.065 36.017C231.268 36.802 230.263 37.353 229.078 37.544C227.467 37.8038 225.962 37.3658 224.771 36.4638C223.577 35.5382 222.748 34.1646 222.488 32.5534C222.224 30.9186 222.58 29.354 223.427 28.1235C224.27 26.8693 225.557 25.9568 227.168 25.697C228.353 25.506 229.484 25.7369 230.488 26.2314C230.534 25.6162 230.935 25.0896 231.552 24.9902C232.239 24.8794 232.899 25.3564 233.014 26.0672ZM230.724 33.7294C231.193 33.0216 231.411 32.1114 231.255 31.1399C231.094 30.1448 230.601 29.3491 229.937 28.8484C229.265 28.3004 228.406 28.0985 227.577 28.2323C226.724 28.3698 225.972 28.8314 225.53 29.559C225.057 30.243 224.863 31.1495 225.023 32.1447C225.18 33.1161 225.649 33.9156 226.317 34.44C226.958 34.9445 227.817 35.1463 228.67 35.0087C229.499 34.875 230.251 34.4134 230.724 33.7294Z" fill="white"/>
<path d="M245.093 35.7194C244.376 35.7938 243.718 35.259 243.643 34.5429L242.181 20.4586C242.104 19.7186 242.641 19.0837 243.357 19.0093C243.381 19.0068 243.381 19.0068 243.429 19.0019C243.429 19.0019 243.429 19.0019 243.453 18.9994L246.747 18.6573C249.253 18.397 251.493 20.2153 251.754 22.7219C251.86 23.7483 251.623 24.714 251.129 25.5374C252.656 26.2958 253.8 27.7936 253.989 29.6078C254.284 32.4485 252.23 34.9782 249.413 35.2707L245.188 35.7095C245.164 35.712 245.162 35.6881 245.162 35.6881C245.114 35.6931 245.116 35.717 245.093 35.7194ZM244.969 21.5202L245.366 25.3397L247.419 25.1265C248.469 25.0174 249.213 24.0474 249.104 22.997C248.995 21.9467 248.072 21.198 247.022 21.307L244.969 21.5202ZM245.641 27.9894L246.154 32.9309L249.138 32.621C250.496 32.4558 251.483 31.2675 251.339 29.883C251.198 28.5223 249.988 27.5621 248.625 27.6796L245.641 27.9894Z" fill="white"/>
<path d="M262.339 34.5008C259.056 34.6851 256.345 32.1397 256.114 28.8838C255.931 25.6248 258.297 22.7331 261.578 22.5249C264.692 22.3272 267.307 24.494 267.704 27.7153C267.705 27.7393 267.708 27.7872 267.711 27.8351C267.714 27.883 267.722 28.0027 267.701 28.0522C267.665 28.6316 267.187 29.0467 266.516 29.0893L258.899 29.5727C259.054 30.116 259.357 30.722 259.814 31.1018C260.354 31.6448 261.339 32.0151 262.182 32.0337C263.049 32.0509 264.065 31.7699 264.635 31.2768C265.105 30.718 266.091 30.7275 266.427 31.091C266.759 31.4065 267.045 32.1099 266.526 32.6478C265.42 33.8001 264.039 34.3928 262.339 34.5008ZM261.723 24.8003C259.693 25.0253 258.78 26.5502 258.651 27.5444L265.429 27.1142C265.129 26.1713 263.817 24.8357 261.723 24.8003Z" fill="white"/>
<path d="M280.21 23.3537L280.332 28.0801L280.453 32.7826C280.471 33.4783 279.91 34.069 279.214 34.0869C278.591 34.103 278.099 33.6595 277.94 33.0874C277.045 33.7586 275.975 34.1703 274.776 34.2012C273.144 34.2432 271.712 33.6079 270.652 32.5548C269.592 31.4777 268.954 30.0056 268.912 28.3742C268.869 26.7187 269.431 25.2158 270.435 24.1096C271.438 22.9794 272.835 22.2472 274.467 22.2052C275.667 22.1743 276.757 22.5543 277.685 23.1786C277.814 22.5751 278.282 22.1069 278.905 22.0909C279.601 22.073 280.192 22.6339 280.21 23.3537ZM276.917 30.6409C277.477 30.0023 277.814 29.1293 277.789 28.1456C277.763 27.138 277.381 26.2835 276.79 25.6985C276.197 25.0656 275.373 24.7507 274.533 24.7723C273.669 24.7945 272.862 25.1514 272.327 25.8134C271.767 26.4281 271.453 27.3004 271.479 28.3081C271.504 29.2918 271.862 30.1468 272.454 30.7558C273.022 31.3414 273.846 31.6563 274.71 31.634C275.549 31.6124 276.357 31.2555 276.917 30.6409Z" fill="white"/>
<path d="M295.158 29.7946C295.057 32.5287 292.671 34.6977 289.913 34.5954C287.178 34.4939 285.008 32.1557 285.109 29.4216L285.322 23.6896C285.347 23.018 285.945 22.4398 286.64 22.4656C287.36 22.4923 287.889 23.1124 287.864 23.7839L287.651 29.516C287.601 30.8831 288.64 32.0024 290.007 32.0531C291.398 32.1047 292.541 31.0664 292.616 29.7003L292.829 23.9682C292.854 23.2967 293.404 22.7167 294.123 22.7434C294.795 22.7683 295.396 23.391 295.371 24.0626L295.158 29.7946Z" fill="white"/>
<path d="M302.703 24.1425C303.417 24.2282 303.968 24.8744 303.88 25.6131C303.794 26.328 303.103 26.8495 302.388 26.7638L301.793 26.6924L300.996 33.3408C301.735 33.4293 302.235 34.0936 302.147 34.8323C302.058 35.571 301.418 36.0744 300.679 35.9859C299.225 35.8116 298.177 34.4774 298.351 33.0238L299.148 26.3754L298.457 26.2925C297.718 26.204 297.217 25.5397 297.303 24.8248C297.392 24.0861 298.032 23.5828 298.771 23.6713L299.462 23.7541L299.876 20.2988C299.964 19.5601 300.629 19.0596 301.367 19.1482C302.106 19.2367 302.609 19.8772 302.521 20.6159L302.107 24.0711L302.703 24.1425Z" fill="white"/>
<path d="M315.021 26.3265C315.708 26.4424 316.207 27.0867 316.087 27.7966L315.144 33.3814L314.576 36.7418C314.04 39.9128 311.112 41.9737 307.964 41.4419C307.112 41.2979 306.277 40.9133 305.627 40.4384C305.012 40.0424 304.899 39.2688 305.295 38.6542C305.699 38.1382 306.548 38.0139 307.064 38.4175C307.477 38.7065 307.907 38.9008 308.38 38.9808C309.78 39.193 311.116 38.4937 311.702 37.3272C310.976 37.5938 310.139 37.6472 309.358 37.5152C306.637 37.0553 304.792 34.4313 305.252 31.7099L306.196 26.1251C306.316 25.4151 306.999 24.9708 307.638 25.0788C308.372 25.2028 308.8 25.835 308.68 26.5449L307.737 32.1298C307.505 33.5023 308.441 34.7315 309.79 34.9594C311.139 35.1874 312.403 34.3301 312.635 32.9576L313.579 27.3727C313.699 26.6628 314.312 26.2065 315.021 26.3265Z" fill="white"/>
<path d="M334.574 44.4633C333.864 44.2393 333.495 43.4937 333.712 42.8071L337.94 29.4187C338.149 28.755 338.886 28.3334 339.596 28.5574C340.305 28.7814 340.667 29.5499 340.457 30.2136L338.383 36.7819L348.147 31.6853C348.809 31.3408 349.588 31.5865 349.932 32.2489C350.261 32.8813 350.008 33.6823 349.368 34.0341L342.751 37.4563L345.729 45.7205C346.02 46.3914 345.676 47.1635 344.989 47.4249C344.695 47.5586 344.392 47.5634 344.094 47.4695C343.751 47.3611 343.458 47.0925 343.3 46.7155L340.402 38.6778L337.256 40.3522L336.23 43.602C336.013 44.2886 335.283 44.6873 334.574 44.4633Z" fill="white"/>
<path d="M352.091 51.0834C350.547 50.4852 349.5 49.3334 348.901 47.8914C348.32 46.5339 348.275 44.921 348.882 43.3544C349.472 41.8326 350.565 40.7377 351.944 40.0363C353.358 39.3746 354.908 39.2284 356.452 39.8267C357.929 40.3989 359.02 41.5681 359.53 42.9754C360.121 44.4397 360.169 45.9768 359.58 47.4986C358.973 49.0652 357.876 50.2359 356.487 50.8305C355.162 51.5269 353.568 51.6557 352.091 51.0834ZM353.029 42.2841C352.28 42.6889 351.677 43.3819 351.322 44.2994C350.949 45.2618 350.936 46.1577 351.208 46.9838C351.56 47.7376 352.186 48.3147 353.036 48.6441C353.819 48.9476 354.648 48.9341 355.416 48.6137C356.218 48.2038 356.835 47.5419 357.207 46.5796C357.563 45.6621 357.562 44.735 357.236 43.914C356.868 43.205 356.29 42.5694 355.507 42.266C354.656 41.9365 353.779 42.0085 353.029 42.2841Z" fill="white"/>
<path d="M364.593 56.6176C361.569 55.2675 360.122 51.6781 361.462 48.6757C362.822 45.6294 366.45 44.3317 369.485 45.6599C370.8 46.2469 371.812 47.2769 372.431 48.4208C372.759 49.0403 372.514 49.8246 371.948 50.1502C371.275 50.4805 370.535 50.2551 370.207 49.6356C369.823 48.9648 369.249 48.3669 368.438 48.0049C366.663 47.2124 364.539 48.0252 363.785 49.7127C363.032 51.4002 363.855 53.5021 365.63 54.2946C366.419 54.6468 367.269 54.6847 368.025 54.5227C368.673 54.3654 369.357 54.7759 369.561 55.4976C369.696 56.1362 369.296 56.7984 368.596 57.0117C367.35 57.2704 365.908 57.2046 364.593 56.6176Z" fill="white"/>
<path d="M376.595 55.1508L374.165 60C373.832 60.6652 373.037 60.9113 372.372 60.578C371.836 60.3092 371.579 59.6971 371.676 59.1284C371.697 59.0318 371.73 58.9137 371.783 58.8065L378.127 46.1471C378.461 45.482 379.255 45.2358 379.899 45.5584C380.564 45.8917 380.842 46.6755 380.509 47.3407L378.638 51.0741C379.508 51.0534 380.409 51.183 381.246 51.6024C383.842 52.9034 384.859 56.0706 383.569 58.6454L381.138 63.4946C380.805 64.1597 380.032 64.4166 379.367 64.0833C378.702 63.75 378.445 62.977 378.778 62.3118L381.208 57.4626C381.843 56.1967 381.329 54.6507 380.052 53.9841C378.776 53.3711 377.251 53.8956 376.595 55.1508Z" fill="white"/>
<path d="M397.383 62.1266L395.081 66.2562L392.79 70.3648C392.451 70.9727 391.667 71.1953 391.06 70.8564C390.515 70.5526 390.317 69.9205 390.472 69.3473C389.36 69.4692 388.23 69.2787 387.182 68.6944C385.756 67.8996 384.847 66.6232 384.471 65.1773C384.107 63.7105 384.308 62.1187 385.103 60.6933C385.909 59.2469 387.158 58.2394 388.585 57.7986C390.024 57.3369 391.6 57.4185 393.025 58.2132C394.073 58.7976 394.818 59.6798 395.299 60.6899C395.717 60.236 396.358 60.0714 396.903 60.3753C397.511 60.7142 397.733 61.4978 397.383 62.1266ZM390.837 66.7207C391.644 66.4562 392.379 65.8769 392.859 65.0174C393.349 64.137 393.456 63.207 393.245 62.4025C393.057 61.556 392.508 60.8652 391.774 60.4562C391.02 60.0354 390.143 59.9316 389.346 60.2287C388.551 60.4723 387.836 61.0633 387.345 61.9438C386.866 62.8032 386.739 63.7215 386.938 64.547C387.128 65.3398 387.677 66.0307 388.432 66.4514C389.166 66.8604 390.042 66.9643 390.837 66.7207Z" fill="white"/>
<path d="M403.031 77.5949C402.404 77.2421 402.175 76.425 402.528 75.7974L409.466 63.4541C409.831 62.8056 410.636 62.5975 411.264 62.9503C411.285 62.9621 411.285 62.9621 411.327 62.9856C411.327 62.9856 411.327 62.9856 411.348 62.9974L414.235 64.6204C416.431 65.8553 417.21 68.6332 415.975 70.8299C415.469 71.7295 414.718 72.3808 413.839 72.768C414.648 74.2686 414.717 76.1525 413.824 77.7425C412.424 80.2321 409.287 81.1114 406.818 79.7236L403.115 77.642C403.094 77.6302 403.106 77.6093 403.106 77.6093C403.064 77.5858 403.052 77.6067 403.031 77.5949ZM411.13 65.9312L409.248 69.2785L411.047 70.2899C411.968 70.8074 413.135 70.445 413.653 69.5244C414.17 68.6039 413.85 67.4601 412.929 66.9426L411.13 65.9312ZM407.943 71.6007L405.508 75.9313L408.123 77.4014C409.328 78.0509 410.819 77.6504 411.501 76.437C412.172 75.2445 411.739 73.7621 410.558 73.0708L407.943 71.6007Z" fill="white"/>
<path d="M418.842 86.5003C415.989 84.8656 415.104 81.2541 416.685 78.3985C418.308 75.5665 421.867 74.4314 424.732 76.0452C427.45 77.5766 428.461 80.8182 427.038 83.7353C427.026 83.7562 427.003 83.7981 426.979 83.8399C426.956 83.8817 426.897 83.9863 426.852 84.0163C426.507 84.4828 425.879 84.57 425.294 84.2402L418.644 80.4942C418.478 81.034 418.402 81.7072 418.578 82.2748C418.734 83.024 419.359 83.8716 420.055 84.3466C420.773 84.8334 421.778 85.1517 422.524 85.0489C423.223 84.8363 424.045 85.382 424.128 85.8697C424.235 86.3156 424.091 87.0607 423.362 87.2288C421.808 87.5926 420.327 87.3367 418.842 86.5003ZM423.613 78.0317C421.788 77.1141 420.191 77.8948 419.541 78.6579L425.459 81.9916C425.721 81.0374 425.349 79.2029 423.613 78.0317Z" fill="white"/>
<path d="M440.096 86.1843L437.777 90.3042L435.469 94.4031C435.127 95.0096 434.343 95.2289 433.736 94.8875C433.193 94.5813 432.998 93.9485 433.155 93.3759C432.043 93.4932 430.913 93.2979 429.867 92.7092C428.445 91.9085 427.541 90.6282 427.172 89.1808C426.814 87.7125 427.021 86.1216 427.822 84.6995C428.634 83.2565 429.887 82.2542 431.316 81.8194C432.757 81.3637 434.333 81.4519 435.755 82.2526C436.8 82.8413 437.541 83.7267 438.018 84.7388C438.438 84.2866 439.08 84.1248 439.624 84.4309C440.23 84.7724 440.449 85.5569 440.096 86.1843ZM433.531 90.7509C434.339 90.4898 435.077 89.9135 435.56 89.0561C436.054 88.1777 436.165 87.2482 435.957 86.4428C435.773 85.5956 435.227 84.9024 434.495 84.4903C433.742 84.0664 432.866 83.9589 432.067 84.2527C431.271 84.493 430.554 85.081 430.06 85.9593C429.577 86.8168 429.446 87.7345 429.642 88.5608C429.828 89.3545 430.374 90.0476 431.127 90.4715C431.859 90.8836 432.735 90.9911 433.531 90.7509Z" fill="white"/>
<path d="M450.855 98.7677C449.516 101.154 446.403 101.993 443.996 100.643C441.61 99.3038 440.746 96.2323 442.085 93.8463L444.893 88.8442C445.221 88.2582 446.017 88.0168 446.624 88.3574C447.252 88.7098 447.44 89.5032 447.111 90.0892L444.304 95.0914C443.634 96.2843 444.048 97.7547 445.241 98.4242C446.455 99.1054 447.946 98.7039 448.636 97.5227L451.443 92.5205C451.772 91.9345 452.526 91.6697 453.154 92.022C453.74 92.3509 453.991 93.1795 453.662 93.7655L450.855 98.7677Z" fill="white"/>
<path d="M463.466 97.7693C464.095 98.12 464.359 98.9271 463.997 99.5768C463.646 100.206 462.809 100.426 462.18 100.075L461.656 99.7824L458.394 105.63C459.043 105.992 459.254 106.797 458.892 107.447C458.529 108.097 457.746 108.319 457.096 107.956C455.817 107.243 455.354 105.611 456.067 104.332L459.33 98.4845L458.722 98.1454C458.072 97.7829 457.861 96.9783 458.212 96.3496C458.575 95.6998 459.358 95.4775 460.008 95.8399L460.616 96.179L462.311 93.14C462.674 92.4902 463.478 92.2796 464.128 92.642C464.778 93.0045 465 93.7882 464.638 94.4379L462.942 97.4769L463.466 97.7693Z" fill="white"/>
<path d="M474.076 103.657C474.684 103.995 474.941 104.769 474.591 105.399L471.841 110.35L470.186 113.33C468.625 116.141 465.177 117.109 462.387 115.559C461.632 115.14 460.972 114.499 460.517 113.835C460.069 113.257 460.221 112.49 460.799 112.042C461.351 111.69 462.193 111.855 462.545 112.408C462.839 112.818 463.179 113.144 463.599 113.377C464.848 114.044 466.34 113.829 467.282 112.925C466.508 112.934 465.701 112.706 465.009 112.321C462.596 110.981 461.731 107.892 463.071 105.48L465.821 100.528C466.17 99.8986 466.963 99.7073 467.529 100.022C468.18 100.383 468.373 101.122 468.024 101.752L465.274 106.703C464.598 107.92 465.071 109.391 466.267 110.055C467.463 110.719 468.941 110.332 469.617 109.115L472.367 104.164C472.716 103.534 473.446 103.308 474.076 103.657Z" fill="white"/>
<path d="M504.184 133.678C503.528 133.327 503.304 132.526 503.644 131.891L510.278 119.517C510.607 118.904 511.409 118.626 512.065 118.978C512.721 119.329 512.934 120.151 512.605 120.765L509.35 126.835L519.889 123.635C520.604 123.419 521.323 123.805 521.539 124.519C521.745 125.202 521.348 125.942 520.654 126.169L513.518 128.307L514.913 136.979C515.076 137.693 514.594 138.388 513.871 138.517C513.557 138.594 513.258 138.543 512.983 138.396C512.666 138.225 512.428 137.907 512.343 137.508L510.983 129.072L507.581 130.135L505.971 133.139C505.631 133.773 504.84 134.03 504.184 133.678Z" fill="white"/>
<path d="M522.277 143.323C520.811 142.552 519.904 141.288 519.473 139.787C519.052 138.372 519.192 136.764 519.974 135.278C520.734 133.833 521.946 132.871 523.396 132.332C524.877 131.837 526.433 131.869 527.898 132.64C529.3 133.377 530.25 134.664 530.596 136.12C531.015 137.643 530.887 139.175 530.127 140.619C529.345 142.106 528.121 143.144 526.673 143.575C525.277 144.115 523.679 144.061 522.277 143.323ZM524.216 134.689C523.426 135.006 522.748 135.625 522.29 136.496C521.809 137.409 521.694 138.298 521.87 139.15C522.132 139.939 522.688 140.584 523.495 141.008C524.238 141.399 525.063 141.481 525.863 141.25C526.706 140.935 527.395 140.348 527.876 139.435C528.334 138.564 528.439 137.643 528.209 136.79C527.924 136.044 527.423 135.346 526.68 134.955C525.873 134.53 524.993 134.501 524.216 134.689Z" fill="white"/>
<path d="M536.426 150.557C533.484 149.038 532.243 145.372 533.752 142.451C535.282 139.486 538.978 138.397 541.932 139.895C543.211 140.556 544.163 141.641 544.717 142.819C545.009 143.456 544.72 144.225 544.137 144.518C543.446 144.809 542.72 144.542 542.427 143.905C542.082 143.214 541.543 142.584 540.754 142.177C539.026 141.285 536.86 141.976 536.012 143.618C535.164 145.26 535.866 147.405 537.594 148.297C538.361 148.693 539.208 148.779 539.972 148.661C540.628 148.54 541.288 148.989 541.45 149.721C541.549 150.366 541.111 151.005 540.401 151.178C539.142 151.365 537.706 151.218 536.426 150.557Z" fill="white"/>
<path d="M550.124 149.935L547.673 154.774C547.337 155.437 546.542 155.68 545.878 155.344C545.343 155.073 545.088 154.46 545.188 153.892C545.21 153.795 545.242 153.677 545.297 153.57L551.694 140.938C552.03 140.274 552.825 140.031 553.467 140.356C554.131 140.692 554.406 141.477 554.07 142.141L552.184 145.867C553.053 145.85 553.954 145.983 554.789 146.406C557.38 147.718 558.383 150.889 557.082 153.458L554.632 158.297C554.296 158.961 553.522 159.215 552.858 158.879C552.194 158.543 551.941 157.769 552.277 157.105L554.727 152.266C555.367 151.003 554.859 149.454 553.586 148.782C552.311 148.164 550.785 148.682 550.124 149.935Z" fill="white"/>
<path d="M570.805 155.788L568.705 160.025L566.617 164.24C566.308 164.863 565.536 165.124 564.912 164.815C564.353 164.538 564.126 163.916 564.252 163.336C563.147 163.512 562.009 163.376 560.934 162.843C559.472 162.119 558.501 160.888 558.056 159.462C557.621 158.015 557.744 156.415 558.469 154.953C559.204 153.469 560.403 152.402 561.807 151.892C563.222 151.361 564.799 151.366 566.262 152.091C567.337 152.624 568.124 153.469 568.653 154.454C569.048 153.981 569.681 153.785 570.24 154.062C570.864 154.371 571.124 155.143 570.805 155.788ZM564.49 160.695C565.283 160.391 565.989 159.777 566.426 158.895C566.873 157.992 566.934 157.058 566.685 156.265C566.456 155.428 565.874 154.765 565.122 154.392C564.347 154.008 563.467 153.947 562.685 154.283C561.902 154.565 561.218 155.19 560.77 156.093C560.333 156.974 560.251 157.898 560.49 158.713C560.718 159.495 561.3 160.159 562.074 160.542C562.827 160.915 563.707 160.977 564.49 160.695Z" fill="white"/>
<path d="M578.632 171.382C577.982 171.071 577.699 170.271 578.01 169.622L584.111 156.844C584.432 156.173 585.222 155.911 585.871 156.222C585.893 156.232 585.893 156.232 585.936 156.253C585.936 156.253 585.936 156.253 585.958 156.263L588.947 157.69C591.221 158.776 592.183 161.496 591.097 163.77C590.652 164.701 589.945 165.401 589.095 165.846C590.001 167.29 590.196 169.165 589.41 170.811C588.179 173.388 585.107 174.474 582.552 173.254L578.718 171.423C578.697 171.413 578.707 171.391 578.707 171.391C578.664 171.37 578.653 171.392 578.632 171.382ZM585.936 159.205L584.282 162.67L586.144 163.559C587.097 164.014 588.238 163.575 588.693 162.622C589.148 161.669 588.752 160.549 587.799 160.094L585.936 159.205ZM583.133 165.074L580.993 169.557L583.7 170.85C584.945 171.418 586.406 170.919 587.006 169.663C587.596 168.428 587.065 166.978 585.841 166.367L583.133 165.074Z" fill="white"/>
<path d="M596.353 179.651C593.38 178.247 592.212 174.716 593.562 171.745C594.956 168.793 598.415 167.38 601.398 168.763C604.229 170.074 605.493 173.226 604.305 176.246C604.295 176.268 604.275 176.312 604.255 176.355C604.235 176.399 604.184 176.508 604.142 176.541C603.835 177.033 603.216 177.17 602.606 176.887L595.681 173.679C595.558 174.23 595.535 174.907 595.756 175.459C595.971 176.194 596.66 176.989 597.392 177.408C598.146 177.836 599.173 178.074 599.909 177.913C600.589 177.645 601.451 178.124 601.573 178.604C601.715 179.04 601.63 179.794 600.917 180.019C599.396 180.505 597.899 180.367 596.353 179.651ZM600.439 170.831C598.548 170.061 597.018 170.965 596.43 171.777L602.593 174.633C602.779 173.661 602.263 171.862 600.439 170.831Z" fill="white"/>
<path d="M618.158 177.717L616.22 182.03L614.292 186.321C614.007 186.955 613.246 187.245 612.611 186.96C612.042 186.704 611.791 186.091 611.895 185.507C610.798 185.724 609.655 185.632 608.561 185.14C607.072 184.471 606.056 183.277 605.557 181.869C605.068 180.439 605.131 178.836 605.8 177.348C606.479 175.837 607.636 174.726 609.02 174.164C610.414 173.58 611.99 173.525 613.479 174.194C614.574 174.686 615.392 175.501 615.958 176.465C616.335 175.977 616.96 175.758 617.529 176.014C618.164 176.299 618.453 177.06 618.158 177.717ZM612.033 182.858C612.814 182.525 613.496 181.885 613.9 180.987C614.313 180.068 614.339 179.132 614.059 178.349C613.799 177.522 613.193 176.881 612.427 176.536C611.638 176.182 610.756 176.154 609.987 176.519C609.216 176.83 608.555 177.481 608.142 178.4C607.739 179.298 607.691 180.223 607.961 181.029C608.219 181.802 608.825 182.443 609.613 182.797C610.379 183.142 611.262 183.17 612.033 182.858Z" fill="white"/>
<path d="M630.622 189.288C629.535 191.799 626.524 192.953 623.991 191.856C621.481 190.768 620.307 187.801 621.395 185.291L623.675 180.027C623.942 179.411 624.709 179.089 625.347 179.366C626.008 179.652 626.276 180.422 626.009 181.039L623.729 186.302C623.185 187.557 623.747 188.978 625.002 189.521C626.28 190.075 627.722 189.523 628.288 188.277L630.568 183.013C630.835 182.397 631.558 182.056 632.219 182.342C632.835 182.609 633.169 183.408 632.902 184.025L630.622 189.288Z" fill="white"/>
<path d="M641.082 185.997C641.746 186.274 642.1 187.046 641.814 187.733C641.536 188.397 640.73 188.71 640.065 188.433L639.511 188.202L636.932 194.382C637.619 194.668 637.919 195.444 637.633 196.13C637.346 196.817 636.593 197.127 635.906 196.84C634.555 196.276 633.91 194.707 634.474 193.355L637.053 187.176L636.411 186.908C635.724 186.621 635.423 185.846 635.701 185.181C635.987 184.495 636.741 184.185 637.427 184.472L638.07 184.74L639.41 181.528C639.697 180.842 640.472 180.541 641.159 180.828C641.845 181.114 642.155 181.868 641.868 182.554L640.528 185.766L641.082 185.997Z" fill="white"/>
<path d="M655.544 191.853C656.189 192.114 656.538 192.851 656.268 193.519L654.142 198.769L652.863 201.927C651.656 204.908 648.352 206.289 645.394 205.091C644.593 204.767 643.86 204.211 643.327 203.607C642.813 203.088 642.869 202.309 643.389 201.794C643.894 201.377 644.749 201.439 645.166 201.944C645.508 202.315 645.885 202.598 646.33 202.778C647.652 203.287 649.106 202.892 649.931 201.879C649.164 201.983 648.335 201.855 647.601 201.558C645.043 200.522 643.808 197.562 644.843 195.003L646.969 189.753C647.239 189.086 648.003 188.8 648.603 189.043C649.293 189.322 649.575 190.032 649.305 190.699L647.179 195.949C646.657 197.239 647.306 198.642 648.574 199.155C649.842 199.668 651.262 199.104 651.784 197.814L653.91 192.564C654.18 191.896 654.877 191.583 655.544 191.853Z" fill="white"/>
<path d="M677.961 213.045C677.262 212.791 676.925 212.03 677.171 211.353L681.962 198.156C682.199 197.502 682.954 197.112 683.653 197.366C684.352 197.62 684.681 198.403 684.443 199.057L682.093 205.532L692.064 200.853C692.74 200.537 693.507 200.816 693.823 201.492C694.125 202.138 693.838 202.928 693.185 203.252L686.428 206.391L689.053 214.774C689.316 215.456 688.939 216.213 688.242 216.445C687.942 216.566 687.639 216.558 687.346 216.452C687.007 216.329 686.726 216.048 686.584 215.665L684.029 207.511L680.815 209.051L679.652 212.254C679.406 212.931 678.66 213.299 677.961 213.045Z" fill="white"/>
<path d="M698.366 220.149C696.797 219.618 695.702 218.512 695.041 217.097C694.402 215.766 694.288 214.157 694.827 212.565C695.351 211.019 696.396 209.878 697.743 209.118C699.128 208.396 700.669 208.183 702.238 208.715C703.738 209.223 704.879 210.344 705.449 211.728C706.103 213.165 706.217 214.699 705.693 216.245C705.154 217.836 704.109 219.053 702.747 219.707C701.453 220.459 699.866 220.657 698.366 220.149ZM698.924 211.317C698.193 211.754 697.621 212.472 697.305 213.404C696.974 214.382 697 215.277 697.308 216.091C697.691 216.829 698.341 217.379 699.205 217.671C700.001 217.94 700.828 217.891 701.581 217.538C702.365 217.094 702.953 216.406 703.284 215.429C703.599 214.497 703.558 213.571 703.198 212.764C702.799 212.072 702.194 211.462 701.399 211.192C700.535 210.9 699.662 211.01 698.924 211.317Z" fill="white"/>
<path d="M711.982 224.409C708.825 223.405 706.987 219.999 707.984 216.866C708.995 213.687 712.455 211.992 715.619 212.973C716.991 213.41 718.112 214.32 718.855 215.388C719.25 215.967 719.094 216.773 718.568 217.16C717.936 217.564 717.175 217.422 716.78 216.843C716.324 216.22 715.687 215.689 714.84 215.42C712.988 214.831 710.968 215.876 710.408 217.637C709.848 219.398 710.9 221.395 712.753 221.984C713.576 222.246 714.425 222.189 715.158 221.943C715.785 221.715 716.511 222.046 716.793 222.741C716.999 223.36 716.675 224.063 716.004 224.353C714.795 224.749 713.354 224.845 711.982 224.409Z" fill="white"/>
<path d="M725.793 221.487L724.251 226.687C724.039 227.4 723.3 227.782 722.587 227.57C722.012 227.4 721.652 226.842 721.647 226.265C721.652 226.166 721.663 226.045 721.697 225.929L725.723 212.354C725.935 211.641 726.674 211.259 727.364 211.464C728.077 211.675 728.489 212.398 728.277 213.111L727.09 217.115C727.942 216.942 728.852 216.912 729.75 217.178C732.534 218.004 734.09 220.944 733.271 223.705L731.729 228.905C731.517 229.618 730.801 230.007 730.088 229.795C729.375 229.584 728.986 228.868 729.198 228.154L730.74 222.954C731.143 221.597 730.366 220.165 728.992 219.732C727.628 219.352 726.219 220.136 725.793 221.487Z" fill="white"/>
<path d="M749.615 223.957L748.373 228.519L747.138 233.057C746.955 233.729 746.248 234.133 745.576 233.95C744.974 233.787 744.631 233.22 744.643 232.627C743.593 233.013 742.45 233.099 741.292 232.784C739.717 232.355 738.528 231.335 737.816 230.022C737.11 228.685 736.922 227.092 737.351 225.517C737.786 223.919 738.756 222.641 740.035 221.87C741.321 221.076 742.87 220.777 744.445 221.206C745.602 221.521 746.537 222.198 747.247 223.063C747.544 222.522 748.127 222.208 748.729 222.372C749.4 222.555 749.805 223.262 749.615 223.957ZM744.366 229.99C745.086 229.539 745.66 228.8 745.919 227.85C746.184 226.878 746.063 225.949 745.665 225.219C745.28 224.443 744.58 223.904 743.77 223.683C742.936 223.456 742.061 223.566 741.358 224.046C740.644 224.474 740.093 225.219 739.828 226.192C739.57 227.141 739.667 228.063 740.059 228.817C740.434 229.541 741.133 230.079 741.967 230.306C742.777 230.527 743.653 230.417 744.366 229.99Z" fill="white"/>
<path d="M760.516 237.507C759.815 237.341 759.369 236.619 759.535 235.919L762.798 222.14C762.969 221.416 763.686 220.993 764.386 221.159C764.41 221.165 764.41 221.165 764.457 221.176C764.457 221.176 764.457 221.176 764.48 221.181L767.703 221.944C770.155 222.525 771.67 224.98 771.089 227.432C770.852 228.437 770.309 229.27 769.572 229.885C770.763 231.104 771.35 232.895 770.93 234.67C770.271 237.449 767.499 239.161 764.743 238.508L760.609 237.529C760.586 237.524 760.591 237.5 760.591 237.5C760.545 237.489 760.539 237.513 760.516 237.507ZM765.081 224.061L764.196 227.798L766.204 228.273C767.232 228.517 768.254 227.846 768.497 226.819C768.74 225.791 768.117 224.78 767.089 224.537L765.081 224.061ZM763.582 230.39L762.437 235.224L765.357 235.916C766.693 236.208 768.016 235.411 768.337 234.056C768.652 232.725 767.827 231.42 766.501 231.081L763.582 230.39Z" fill="white"/>
<path d="M779.55 241.612C776.337 240.914 774.404 237.737 775.051 234.538C775.745 231.348 778.796 229.193 782.014 229.868C785.068 230.509 787.009 233.294 786.532 236.505C786.527 236.528 786.517 236.575 786.507 236.622C786.497 236.669 786.473 236.787 786.439 236.829C786.251 237.378 785.678 237.65 785.021 237.512L777.551 235.945C777.555 236.51 777.686 237.175 778.025 237.663C778.4 238.33 779.251 238.95 780.058 239.193C780.889 239.441 781.943 239.441 782.624 239.118C783.226 238.705 784.174 238.977 784.4 239.417C784.637 239.81 784.724 240.564 784.08 240.944C782.707 241.76 781.218 241.962 779.55 241.612ZM781.546 232.099C779.53 231.775 778.243 233 777.853 233.924L784.5 235.318C784.462 234.33 783.555 232.692 781.546 232.099Z" fill="white"/>
<path d="M802.305 234.889L801.46 239.541L800.619 244.169C800.495 244.854 799.825 245.318 799.14 245.194C798.526 245.082 798.136 244.548 798.097 243.955C797.084 244.43 795.953 244.615 794.772 244.4C793.166 244.109 791.893 243.194 791.071 241.947C790.252 240.677 789.928 239.106 790.22 237.5C790.516 235.87 791.372 234.514 792.58 233.635C793.793 232.734 795.31 232.302 796.916 232.593C798.097 232.808 799.086 233.402 799.868 234.203C800.117 233.638 800.671 233.275 801.285 233.387C801.969 233.511 802.433 234.181 802.305 234.889ZM797.594 241.351C798.272 240.84 798.781 240.055 798.957 239.086C799.137 238.095 798.937 237.18 798.477 236.487C798.027 235.747 797.284 235.27 796.457 235.12C795.607 234.966 794.744 235.15 794.085 235.689C793.411 236.177 792.926 236.967 792.746 237.959C792.57 238.927 792.747 239.837 793.202 240.554C793.638 241.243 794.381 241.719 795.231 241.874C796.057 242.024 796.92 241.839 797.594 241.351Z" fill="white"/>
<path d="M816.827 242.75C816.415 245.454 813.798 247.338 811.069 246.923C808.365 246.511 806.474 243.941 806.886 241.236L807.749 235.565C807.85 234.901 808.51 234.395 809.198 234.499C809.91 234.608 810.365 235.284 810.264 235.948L809.401 241.619C809.195 242.971 810.1 244.202 811.452 244.408C812.828 244.617 814.082 243.715 814.312 242.367L815.175 236.696C815.276 236.032 815.889 235.518 816.601 235.626C817.265 235.727 817.791 236.415 817.69 237.079L816.827 242.75Z" fill="white"/>
<path d="M825.483 236.629C826.198 236.718 826.746 237.366 826.654 238.105C826.566 238.819 825.873 239.338 825.158 239.249L824.563 239.175L823.739 245.82C824.477 245.912 824.975 246.578 824.883 247.317C824.792 248.055 824.149 248.556 823.411 248.464C821.958 248.284 820.915 246.945 821.095 245.493L821.919 238.847L821.228 238.762C820.49 238.67 819.992 238.004 820.081 237.289C820.172 236.551 820.815 236.05 821.553 236.142L822.244 236.228L822.672 232.774C822.764 232.036 823.43 231.538 824.169 231.629C824.907 231.721 825.408 232.364 825.316 233.102L824.888 236.555L825.483 236.629Z" fill="white"/>
<path d="M840.564 238.172C841.256 238.243 841.797 238.853 841.724 239.569L841.148 245.204L840.802 248.594C840.475 251.794 837.688 254.042 834.512 253.718C833.653 253.63 832.794 253.301 832.114 252.869C831.475 252.515 831.312 251.75 831.667 251.111C832.035 250.57 832.874 250.39 833.415 250.759C833.847 251.02 834.288 251.186 834.766 251.235C836.177 251.355 837.464 250.569 837.972 249.367C837.265 249.681 836.434 249.789 835.646 249.708C832.9 249.428 830.887 246.93 831.168 244.184L831.744 238.55C831.817 237.833 832.47 237.345 833.115 237.411C833.855 237.487 834.324 238.09 834.251 238.806L833.675 244.44C833.533 245.825 834.548 246.99 835.909 247.13C837.27 247.269 838.476 246.33 838.617 244.945L839.193 239.311C839.266 238.595 839.848 238.099 840.564 238.172Z" fill="white"/>
<path d="M869.833 251.222C869.089 251.218 868.516 250.615 868.52 249.895L868.605 235.855C868.609 235.159 869.189 234.538 869.933 234.543C870.677 234.547 871.249 235.175 871.245 235.871L871.204 242.759L879.027 235.006C879.558 234.481 880.374 234.486 880.898 235.017C881.399 235.524 881.394 236.364 880.887 236.889L875.576 242.113L880.861 249.129C881.338 249.684 881.237 250.523 880.658 250.976C880.417 251.19 880.128 251.285 879.816 251.283C879.456 251.281 879.097 251.11 878.835 250.797L873.692 243.974L871.181 246.503L871.16 249.91C871.156 250.63 870.576 251.227 869.833 251.222Z" fill="white"/>
<path d="M893.462 250.665C891.807 250.73 890.389 250.089 889.266 249.004C888.193 247.989 887.511 246.527 887.446 244.848C887.382 243.217 887.95 241.778 888.936 240.586C889.971 239.417 891.335 238.667 892.989 238.602C894.572 238.54 896.038 239.179 897.066 240.268C898.19 241.377 898.845 242.768 898.909 244.399C898.974 246.077 898.433 247.588 897.395 248.685C896.456 249.851 895.045 250.603 893.462 250.665ZM890.825 242.218C890.299 242.887 890.021 243.762 890.06 244.745C890.1 245.777 890.445 246.604 891.022 247.254C891.645 247.806 892.448 248.087 893.359 248.051C894.199 248.018 894.954 247.676 895.531 247.077C896.104 246.382 896.407 245.53 896.367 244.498C896.328 243.515 895.959 242.665 895.334 242.041C894.713 241.537 893.931 241.183 893.092 241.216C892.18 241.252 891.404 241.666 890.825 242.218Z" fill="white"/>
<path d="M909.957 249.465C906.654 249.698 903.687 247.213 903.456 243.933C903.222 240.605 905.811 237.752 909.113 237.495C910.55 237.394 911.928 237.826 913.013 238.543C913.594 238.935 913.747 239.743 913.401 240.296C912.963 240.905 912.203 241.055 911.622 240.662C910.968 240.251 910.18 239.994 909.294 240.057C907.355 240.193 905.864 241.91 905.994 243.754C906.124 245.597 907.839 247.064 909.778 246.928C910.64 246.867 911.408 246.5 911.999 246.001C912.497 245.557 913.294 245.597 913.813 246.138C914.233 246.638 914.191 247.41 913.674 247.928C912.697 248.743 911.394 249.364 909.957 249.465Z" fill="white"/>
<path d="M922.06 241.532L922.58 246.931C922.652 247.672 922.11 248.303 921.369 248.374C920.772 248.432 920.229 248.05 920.009 247.516C919.975 247.423 919.94 247.306 919.929 247.187L918.571 233.092C918.5 232.351 919.042 231.72 919.759 231.651C920.499 231.58 921.152 232.096 921.223 232.836L921.623 236.993C922.349 236.513 923.181 236.144 924.113 236.054C927.003 235.776 929.548 237.918 929.824 240.785L930.344 246.184C930.416 246.924 929.898 247.553 929.157 247.624C928.416 247.695 927.788 247.177 927.717 246.437L927.197 241.038C927.061 239.628 925.804 238.592 924.368 238.706C922.961 238.866 921.949 240.12 922.06 241.532Z" fill="white"/>
<path d="M943.925 234.987L944.488 239.682L945.048 244.352C945.131 245.043 944.628 245.684 943.937 245.766C943.317 245.841 942.786 245.445 942.575 244.89C941.746 245.642 940.72 246.152 939.528 246.295C937.908 246.489 936.422 245.991 935.269 245.041C934.112 244.068 933.34 242.662 933.145 241.042C932.948 239.398 933.367 237.849 934.263 236.654C935.156 235.434 936.479 234.575 938.099 234.381C939.291 234.238 940.412 234.514 941.394 235.049C941.466 234.436 941.888 233.926 942.508 233.852C943.199 233.769 943.839 234.272 943.925 234.987ZM941.327 242.55C941.825 241.862 942.079 240.961 941.962 239.984C941.842 238.984 941.382 238.169 940.738 237.641C940.089 237.067 939.239 236.83 938.405 236.93C937.547 237.033 936.777 237.464 936.306 238.173C935.806 238.837 935.575 239.735 935.695 240.736C935.812 241.713 936.249 242.531 936.895 243.082C937.514 243.612 938.365 243.848 939.222 243.745C940.056 243.645 940.827 243.215 941.327 242.55Z" fill="white"/>
<path d="M959.418 243.453C958.706 243.56 958.023 243.055 957.917 242.343L955.818 228.34C955.707 227.604 956.215 226.945 956.927 226.838C956.951 226.835 956.951 226.835 956.999 226.828C956.999 226.828 956.999 226.828 957.022 226.824L960.298 226.333C962.79 225.96 965.11 227.675 965.483 230.167C965.636 231.188 965.443 232.163 964.987 233.008C966.546 233.696 967.758 235.141 968.028 236.945C968.452 239.769 966.514 242.389 963.714 242.809L959.513 243.439C959.489 243.442 959.485 243.418 959.485 243.418C959.438 243.426 959.442 243.449 959.418 243.453ZM958.651 229.274L959.221 233.071L961.262 232.765C962.306 232.609 963.005 231.606 962.849 230.562C962.692 229.517 961.737 228.811 960.693 228.968L958.651 229.274ZM959.616 235.706L960.352 240.619L963.319 240.174C964.668 239.948 965.6 238.716 965.394 237.339C965.191 235.987 963.939 235.082 962.582 235.261L959.616 235.706Z" fill="white"/>
<path d="M976.288 240.685C973.041 241.205 970.084 238.95 969.521 235.735C969.006 232.512 971.063 229.393 974.306 228.85C977.383 228.334 980.205 230.222 980.93 233.386C980.934 233.41 980.942 233.457 980.95 233.504C980.958 233.552 980.978 233.67 980.962 233.721C980.986 234.301 980.552 234.763 979.89 234.874L972.362 236.135C972.572 236.66 972.935 237.231 973.429 237.562C974.021 238.047 975.039 238.315 975.88 238.247C976.744 238.175 977.726 237.792 978.242 237.243C978.652 236.639 979.634 236.547 980.006 236.875C980.369 237.154 980.724 237.825 980.263 238.413C979.282 239.673 977.969 240.404 976.288 240.685ZM974.682 231.099C972.686 231.53 971.934 233.141 971.907 234.143L978.606 233.021C978.21 232.114 976.769 230.919 974.682 231.099Z" fill="white"/>
<path d="M996.684 226.041L997.548 230.69L998.407 235.315C998.534 235.999 998.073 236.67 997.388 236.797C996.775 236.911 996.22 236.551 995.973 236.011C995.195 236.814 994.203 237.389 993.023 237.608C991.419 237.907 989.904 237.504 988.692 236.631C987.475 235.734 986.614 234.381 986.316 232.776C986.013 231.148 986.331 229.576 987.149 228.325C987.962 227.051 989.227 226.108 990.831 225.81C992.011 225.591 993.147 225.795 994.163 226.266C994.194 225.649 994.583 225.113 995.197 224.999C995.881 224.872 996.552 225.333 996.684 226.041ZM994.578 233.756C995.03 233.037 995.226 232.122 995.046 231.154C994.862 230.163 994.35 229.38 993.675 228.895C992.99 228.363 992.126 228.182 991.3 228.335C990.451 228.493 989.71 228.972 989.286 229.71C988.829 230.405 988.656 231.316 988.84 232.307C989.02 233.275 989.508 234.063 990.189 234.571C990.841 235.06 991.705 235.241 992.554 235.084C993.38 234.93 994.121 234.451 994.578 233.756Z" fill="white"/>
<path d="M1012.12 228.687C1012.66 231.369 1010.85 234.035 1008.14 234.58C1005.46 235.119 1002.8 233.353 1002.26 230.67L1001.13 225.047C1001 224.388 1001.45 223.686 1002.13 223.549C1002.83 223.407 1003.49 223.886 1003.63 224.545L1004.76 230.169C1005.03 231.51 1006.3 232.355 1007.64 232.086C1009 231.811 1009.87 230.535 1009.63 229.189L1008.5 223.565C1008.36 222.907 1008.76 222.214 1009.47 222.072C1010.13 221.94 1010.86 222.405 1010.99 223.064L1012.12 228.687Z" fill="white"/>
<path d="M1020.19 219.717C1020.89 219.565 1021.62 219.996 1021.78 220.724C1021.93 221.427 1021.45 222.145 1020.74 222.297L1020.16 222.424L1021.57 228.969C1022.3 228.812 1022.99 229.277 1023.14 230.005C1023.3 230.732 1022.86 231.416 1022.13 231.573C1020.7 231.882 1019.27 230.962 1018.97 229.531L1017.55 222.985L1016.87 223.132C1016.15 223.289 1015.46 222.824 1015.31 222.12C1015.15 221.393 1015.59 220.708 1016.32 220.552L1017 220.405L1016.26 217.003C1016.11 216.276 1016.57 215.586 1017.3 215.429C1018.03 215.272 1018.71 215.714 1018.87 216.441L1019.6 219.843L1020.19 219.717Z" fill="white"/>
<path d="M1034.31 216.53C1034.99 216.377 1035.7 216.784 1035.85 217.487L1037.1 223.013L1037.84 226.337C1038.55 229.475 1036.62 232.492 1033.51 233.192C1032.66 233.382 1031.75 233.343 1030.96 233.149C1030.25 233.016 1029.85 232.343 1029.98 231.624C1030.16 230.994 1030.9 230.557 1031.53 230.735C1032.02 230.846 1032.49 230.863 1032.96 230.757C1034.34 230.423 1035.31 229.27 1035.41 227.968C1034.84 228.49 1034.08 228.857 1033.31 229.03C1030.62 229.636 1027.92 227.907 1027.31 225.214L1026.07 219.688C1025.91 218.986 1026.37 218.315 1027 218.173C1027.73 218.01 1028.37 218.433 1028.53 219.135L1029.77 224.661C1030.07 226.019 1031.41 226.802 1032.74 226.502C1034.07 226.201 1034.92 224.929 1034.61 223.571L1033.37 218.045C1033.21 217.342 1033.61 216.688 1034.31 216.53Z" fill="white"/>
<path d="M1072.82 219.29C1072.1 219.477 1071.4 219.042 1071.22 218.345L1067.68 204.757C1067.5 204.084 1067.9 203.335 1068.62 203.147C1069.34 202.96 1070.06 203.419 1070.23 204.093L1071.97 210.759L1077.53 201.252C1077.91 200.608 1078.7 200.403 1079.34 200.781C1079.96 201.141 1080.17 201.954 1079.81 202.592L1076.03 209.008L1082.94 214.426C1083.55 214.839 1083.66 215.676 1083.22 216.263C1083.04 216.532 1082.79 216.698 1082.49 216.776C1082.14 216.867 1081.75 216.795 1081.41 216.559L1074.69 211.291L1072.91 214.382L1073.77 217.68C1073.95 218.377 1073.54 219.103 1072.82 219.29Z" fill="white"/>
<path d="M1093.44 213.814C1091.84 214.25 1090.32 213.945 1088.98 213.141C1087.71 212.395 1086.71 211.123 1086.27 209.503C1085.84 207.928 1086.07 206.398 1086.76 205.015C1087.51 203.642 1088.67 202.604 1090.26 202.168C1091.79 201.751 1093.36 202.043 1094.61 202.872C1095.95 203.699 1096.91 204.907 1097.34 206.481C1097.78 208.102 1097.59 209.695 1096.83 210.998C1096.18 212.346 1094.97 213.397 1093.44 213.814ZM1088.97 206.178C1088.61 206.949 1088.53 207.865 1088.79 208.814C1089.07 209.809 1089.59 210.537 1090.3 211.04C1091.03 211.438 1091.87 211.53 1092.75 211.29C1093.56 211.069 1094.22 210.566 1094.65 209.852C1095.05 209.046 1095.15 208.147 1094.88 207.151C1094.62 206.202 1094.07 205.457 1093.32 204.99C1092.6 204.639 1091.76 204.47 1090.95 204.692C1090.07 204.932 1089.41 205.511 1088.97 206.178Z" fill="white"/>
<path d="M1110.71 208.858C1107.53 209.763 1104.11 207.938 1103.21 204.775C1102.3 201.566 1104.25 198.243 1107.43 197.315C1108.82 196.921 1110.25 197.062 1111.46 197.542C1112.11 197.806 1112.43 198.565 1112.2 199.178C1111.9 199.863 1111.19 200.165 1110.54 199.901C1109.81 199.633 1108.99 199.542 1108.13 199.785C1106.26 200.316 1105.16 202.302 1105.66 204.08C1106.17 205.858 1108.15 206.942 1110.02 206.411C1110.85 206.175 1111.52 205.658 1112 205.049C1112.4 204.512 1113.18 204.388 1113.8 204.811C1114.32 205.214 1114.43 205.979 1114.03 206.592C1113.25 207.589 1112.1 208.464 1110.71 208.858Z" fill="white"/>
<path d="M1117.65 199.797L1119.18 205.003C1119.38 205.717 1118.97 206.438 1118.26 206.647C1117.68 206.815 1117.07 206.542 1116.76 206.06C1116.71 205.974 1116.65 205.866 1116.62 205.751L1112.64 192.16C1112.44 191.446 1112.85 190.724 1113.54 190.522C1114.25 190.313 1114.99 190.698 1115.2 191.412L1116.37 195.42C1117 194.813 1117.74 194.294 1118.64 194.031C1121.43 193.216 1124.33 194.844 1125.14 197.608L1126.66 202.814C1126.87 203.528 1126.48 204.242 1125.77 204.451C1125.05 204.66 1124.34 204.269 1124.13 203.555L1122.61 198.349C1122.21 196.99 1120.78 196.207 1119.39 196.588C1118.04 197.009 1117.28 198.431 1117.65 199.797Z" fill="white"/>
<path d="M1141.06 188.623L1142.43 193.148L1143.79 197.65C1143.99 198.317 1143.61 199.035 1142.94 199.236C1142.34 199.417 1141.75 199.12 1141.45 198.61C1140.76 199.495 1139.84 200.175 1138.69 200.523C1137.13 200.996 1135.58 200.763 1134.28 200.028C1132.97 199.271 1131.97 198.02 1131.49 196.458C1131.01 194.873 1131.16 193.275 1131.83 191.943C1132.5 190.587 1133.65 189.51 1135.21 189.038C1136.36 188.69 1137.51 188.767 1138.57 189.123C1138.54 188.507 1138.87 187.932 1139.46 187.751C1140.13 187.549 1140.85 187.934 1141.06 188.623ZM1139.81 196.522C1140.18 195.758 1140.28 194.827 1139.99 193.885C1139.7 192.921 1139.1 192.198 1138.38 191.791C1137.64 191.337 1136.76 191.252 1135.96 191.495C1135.13 191.746 1134.45 192.304 1134.11 193.084C1133.73 193.825 1133.66 194.749 1133.95 195.714C1134.24 196.656 1134.81 197.386 1135.54 197.816C1136.24 198.23 1137.12 198.315 1137.95 198.065C1138.75 197.822 1139.43 197.264 1139.81 196.522Z" fill="white"/>
<path d="M1155.44 195.293C1154.75 195.509 1154 195.117 1153.78 194.431L1149.53 180.924C1149.31 180.215 1149.71 179.485 1150.39 179.269C1150.42 179.262 1150.42 179.262 1150.46 179.247C1150.46 179.247 1150.46 179.247 1150.48 179.24L1153.64 178.245C1156.05 177.488 1158.61 178.822 1159.36 181.225C1159.67 182.21 1159.63 183.203 1159.31 184.109C1160.96 184.546 1162.38 185.784 1162.93 187.524C1163.79 190.248 1162.28 193.138 1159.58 193.989L1155.53 195.264C1155.51 195.272 1155.5 195.249 1155.5 195.249C1155.45 195.263 1155.46 195.286 1155.44 195.293ZM1152.47 181.406L1153.63 185.069L1155.6 184.449C1156.6 184.132 1157.14 183.033 1156.82 182.025C1156.5 181.018 1155.45 180.469 1154.44 180.786L1152.47 181.406ZM1154.43 187.61L1155.92 192.349L1158.78 191.448C1160.08 191.014 1160.81 189.652 1160.39 188.324C1159.98 187.019 1158.6 186.321 1157.29 186.709L1154.43 187.61Z" fill="white"/>
<path d="M1172.86 189.694C1169.72 190.683 1166.47 188.885 1165.44 185.787C1164.46 182.674 1166.04 179.288 1169.16 178.276C1172.13 177.316 1175.2 178.77 1176.38 181.794C1176.39 181.817 1176.4 181.862 1176.42 181.908C1176.43 181.954 1176.47 182.068 1176.46 182.121C1176.57 182.691 1176.21 183.212 1175.57 183.418L1168.31 185.767C1168.59 186.255 1169.04 186.768 1169.57 187.023C1170.23 187.416 1171.28 187.532 1172.1 187.342C1172.94 187.144 1173.86 186.621 1174.29 186.003C1174.6 185.345 1175.56 185.111 1175.98 185.38C1176.38 185.604 1176.83 186.215 1176.46 186.865C1175.67 188.254 1174.48 189.169 1172.86 189.694ZM1169.87 180.445C1167.96 181.164 1167.45 182.868 1167.57 183.863L1174.03 181.773C1173.51 180.933 1171.9 179.963 1169.87 180.445Z" fill="white"/>
<path d="M1188.65 173.185L1190.14 177.672L1191.62 182.137C1191.84 182.798 1191.48 183.526 1190.82 183.745C1190.22 183.941 1189.62 183.66 1189.31 183.158C1188.65 184.06 1187.74 184.765 1186.6 185.143C1185.05 185.657 1183.5 185.465 1182.18 184.765C1180.85 184.042 1179.81 182.818 1179.3 181.269C1178.78 179.697 1178.88 178.096 1179.52 176.746C1180.15 175.373 1181.27 174.267 1182.82 173.753C1183.96 173.375 1185.12 173.422 1186.19 173.75C1186.13 173.136 1186.45 172.552 1187.04 172.355C1187.7 172.136 1188.43 172.501 1188.65 173.185ZM1187.62 181.114C1187.97 180.341 1188.04 179.407 1187.73 178.473C1187.41 177.516 1186.8 176.81 1186.06 176.422C1185.31 175.988 1184.43 175.926 1183.63 176.191C1182.81 176.463 1182.14 177.038 1181.82 177.827C1181.47 178.578 1181.42 179.504 1181.74 180.461C1182.05 181.395 1182.64 182.109 1183.38 182.52C1184.09 182.915 1184.97 182.977 1185.79 182.705C1186.59 182.441 1187.26 181.865 1187.62 181.114Z" fill="white"/>
<path d="M1204.61 173.764C1205.49 176.355 1204.03 179.232 1201.42 180.12C1198.83 181.001 1195.97 179.591 1195.09 177L1193.24 171.57C1193.03 170.933 1193.38 170.18 1194.04 169.956C1194.72 169.724 1195.43 170.115 1195.65 170.751L1197.5 176.182C1197.94 177.477 1199.31 178.152 1200.6 177.712C1201.92 177.264 1202.62 175.886 1202.2 174.583L1200.35 169.152C1200.14 168.516 1200.44 167.778 1201.13 167.546C1201.76 167.33 1202.55 167.697 1202.76 168.333L1204.61 173.764Z" fill="white"/>
<path d="M1211.35 163.971C1212.03 163.734 1212.81 164.073 1213.06 164.776C1213.29 165.456 1212.9 166.227 1212.22 166.464L1211.65 166.661L1213.85 172.985C1214.56 172.741 1215.3 173.119 1215.54 173.821C1215.79 174.524 1215.43 175.257 1214.73 175.502C1213.35 175.983 1211.82 175.243 1211.34 173.861L1209.14 167.536L1208.48 167.765C1207.78 168.009 1207.04 167.632 1206.8 166.952C1206.56 166.249 1206.91 165.516 1207.61 165.272L1208.27 165.043L1207.13 161.756C1206.88 161.053 1207.26 160.312 1207.96 160.068C1208.67 159.823 1209.4 160.178 1209.64 160.881L1210.79 164.168L1211.35 163.971Z" fill="white"/>
<path d="M1223.53 159.674C1224.18 159.442 1224.93 159.763 1225.17 160.442L1227.05 165.784L1228.19 168.998C1229.26 172.031 1227.7 175.253 1224.69 176.315C1223.87 176.603 1222.96 176.672 1222.16 176.572C1221.43 176.524 1220.95 175.902 1221 175.172C1221.1 174.525 1221.79 174.005 1222.43 174.107C1222.93 174.159 1223.4 174.121 1223.86 173.961C1225.18 173.468 1226.01 172.208 1225.96 170.904C1225.45 171.489 1224.75 171.942 1224 172.205C1221.4 173.123 1218.51 171.724 1217.59 169.121L1215.71 163.78C1215.47 163.101 1215.85 162.38 1216.46 162.165C1217.17 161.917 1217.85 162.262 1218.09 162.941L1219.97 168.283C1220.43 169.595 1221.85 170.216 1223.14 169.761C1224.43 169.306 1225.12 167.943 1224.66 166.63L1222.77 161.289C1222.53 160.61 1222.85 159.913 1223.53 159.674Z" fill="white"/>
<path d="M1254.87 161.004C1254.17 161.262 1253.42 160.9 1253.17 160.224L1248.3 147.057C1248.06 146.404 1248.38 145.619 1249.08 145.361C1249.77 145.102 1250.53 145.488 1250.77 146.141L1253.16 152.601L1257.75 142.587C1258.06 141.909 1258.83 141.625 1259.51 141.937C1260.15 142.235 1260.44 143.023 1260.15 143.693L1257.03 150.455L1264.45 155.156C1265.09 155.507 1265.29 156.328 1264.91 156.956C1264.76 157.241 1264.52 157.431 1264.23 157.54C1263.89 157.665 1263.5 157.632 1263.14 157.431L1255.92 152.86L1254.46 156.112L1255.65 159.308C1255.89 159.983 1255.56 160.746 1254.87 161.004Z" fill="white"/>
<path d="M1273.07 154.231C1271.52 154.818 1269.97 154.659 1268.56 153.987C1267.22 153.364 1266.11 152.193 1265.52 150.622C1264.94 149.096 1265.02 147.551 1265.58 146.108C1266.19 144.671 1267.25 143.527 1268.8 142.941C1270.28 142.38 1271.87 142.522 1273.19 143.228C1274.61 143.923 1275.67 145.035 1276.25 146.562C1276.84 148.133 1276.81 149.737 1276.17 151.107C1275.65 152.51 1274.55 153.671 1273.07 154.231ZM1267.89 147.056C1267.6 147.857 1267.62 148.776 1267.97 149.696C1268.33 150.661 1268.92 151.337 1269.67 151.77C1270.44 152.096 1271.29 152.108 1272.14 151.785C1272.93 151.488 1273.54 150.924 1273.89 150.173C1274.22 149.332 1274.23 148.427 1273.87 147.462C1273.52 146.542 1272.9 145.853 1272.11 145.459C1271.36 145.178 1270.51 145.09 1269.72 145.388C1268.87 145.71 1268.27 146.35 1267.89 147.056Z" fill="white"/>
<path d="M1287.45 148.618C1284.36 149.81 1280.79 148.305 1279.61 145.237C1278.41 142.125 1280.05 138.637 1283.13 137.423C1284.47 136.904 1285.92 136.913 1287.16 137.28C1287.83 137.485 1288.22 138.211 1288.05 138.842C1287.81 139.552 1287.13 139.918 1286.46 139.714C1285.71 139.513 1284.88 139.499 1284.05 139.818C1282.24 140.518 1281.32 142.597 1281.98 144.321C1282.65 146.045 1284.72 146.944 1286.53 146.245C1287.34 145.933 1287.97 145.357 1288.38 144.707C1288.73 144.137 1289.5 143.941 1290.16 144.306C1290.71 144.66 1290.89 145.411 1290.55 146.057C1289.86 147.123 1288.79 148.1 1287.45 148.618Z" fill="white"/>
<path d="M1297.56 137.407L1299.54 142.454C1299.81 143.147 1299.47 143.902 1298.77 144.175C1298.22 144.394 1297.59 144.177 1297.23 143.724C1297.17 143.644 1297.11 143.541 1297.06 143.429L1291.88 130.252C1291.61 129.559 1291.96 128.804 1292.63 128.54C1293.32 128.268 1294.09 128.584 1294.36 129.277L1295.89 133.163C1296.45 132.502 1297.15 131.918 1298.02 131.575C1300.73 130.513 1303.76 131.872 1304.82 134.552L1306.8 139.6C1307.07 140.292 1306.75 141.039 1306.06 141.311C1305.36 141.584 1304.62 141.258 1304.34 140.566L1302.36 135.518C1301.84 134.2 1300.35 133.55 1299 134.055C1297.69 134.595 1297.06 136.08 1297.56 137.407Z" fill="white"/>
<path d="M1316.91 125.408L1318.67 129.797L1320.42 134.164C1320.68 134.81 1320.36 135.559 1319.71 135.818C1319.13 136.05 1318.52 135.805 1318.17 135.324C1317.56 136.264 1316.7 137.022 1315.59 137.469C1314.08 138.076 1312.51 137.978 1311.15 137.36C1309.78 136.719 1308.67 135.56 1308.07 134.045C1307.45 132.508 1307.45 130.904 1308.01 129.518C1308.56 128.109 1309.61 126.936 1311.13 126.329C1312.24 125.883 1313.4 125.86 1314.48 126.123C1314.39 125.512 1314.67 124.91 1315.25 124.678C1315.9 124.419 1316.64 124.74 1316.91 125.408ZM1316.36 133.386C1316.66 132.593 1316.67 131.657 1316.31 130.743C1315.93 129.807 1315.28 129.139 1314.52 128.797C1313.74 128.409 1312.86 128.401 1312.08 128.713C1311.28 129.034 1310.65 129.65 1310.38 130.457C1310.07 131.228 1310.07 132.155 1310.45 133.09C1310.82 134.004 1311.45 134.681 1312.22 135.046C1312.95 135.398 1313.83 135.406 1314.64 135.085C1315.42 134.772 1316.05 134.157 1316.36 133.386Z" fill="white"/>
<path d="M1331.85 130.832C1331.18 131.105 1330.4 130.778 1330.13 130.112L1324.75 117.014C1324.46 116.326 1324.8 115.565 1325.47 115.292C1325.49 115.282 1325.49 115.282 1325.53 115.264C1325.53 115.264 1325.53 115.264 1325.55 115.255L1328.62 113.997C1330.95 113.039 1333.61 114.151 1334.57 116.482C1334.96 117.437 1335.01 118.43 1334.77 119.36C1336.44 119.656 1337.96 120.77 1338.66 122.457C1339.74 125.099 1338.49 128.105 1335.87 129.181L1331.94 130.795C1331.92 130.804 1331.91 130.782 1331.91 130.782C1331.86 130.801 1331.87 130.823 1331.85 130.832ZM1327.72 117.245L1329.18 120.797L1331.09 120.013C1332.07 119.612 1332.51 118.471 1332.1 117.494C1331.7 116.518 1330.61 116.06 1329.63 116.461L1327.72 117.245ZM1330.19 123.261L1332.08 127.857L1334.86 126.717C1336.11 126.175 1336.72 124.757 1336.19 123.469C1335.67 122.204 1334.24 121.624 1332.97 122.122L1330.19 123.261Z" fill="white"/>
<path d="M1348.39 123.948C1345.35 125.194 1341.95 123.673 1340.67 120.671C1339.43 117.651 1340.73 114.145 1343.76 112.877C1346.64 111.673 1349.82 112.867 1351.24 115.783C1351.25 115.805 1351.27 115.849 1351.29 115.893C1351.31 115.938 1351.36 116.048 1351.35 116.102C1351.51 116.661 1351.19 117.21 1350.57 117.469L1343.53 120.413C1343.85 120.876 1344.34 121.35 1344.89 121.56C1345.58 121.897 1346.63 121.925 1347.44 121.667C1348.26 121.4 1349.13 120.803 1349.51 120.151C1349.77 119.469 1350.7 119.156 1351.14 119.39C1351.56 119.58 1352.06 120.151 1351.74 120.829C1351.07 122.279 1349.96 123.291 1348.39 123.948ZM1344.64 114.98C1342.79 115.856 1342.43 117.595 1342.63 118.577L1348.9 115.957C1348.31 115.164 1346.63 114.33 1344.64 114.98Z" fill="white"/>
<path d="M1365.35 105.095L1367.21 109.444L1369.05 113.77C1369.33 114.411 1369.02 115.166 1368.38 115.439C1367.81 115.684 1367.19 115.453 1366.83 114.98C1366.25 115.934 1365.4 116.711 1364.3 117.181C1362.8 117.821 1361.23 117.759 1359.86 117.17C1358.48 116.56 1357.34 115.426 1356.7 113.925C1356.05 112.402 1356.02 110.798 1356.54 109.399C1357.06 107.979 1358.09 106.783 1359.59 106.143C1360.7 105.672 1361.85 105.624 1362.94 105.862C1362.84 105.254 1363.1 104.646 1363.68 104.401C1364.32 104.128 1365.07 104.432 1365.35 105.095ZM1364.98 113.083C1365.26 112.283 1365.25 111.347 1364.87 110.441C1364.47 109.514 1363.8 108.861 1363.04 108.535C1362.25 108.165 1361.37 108.176 1360.6 108.505C1359.8 108.844 1359.19 109.473 1358.93 110.286C1358.64 111.064 1358.67 111.99 1359.06 112.918C1359.45 113.823 1360.1 114.486 1360.87 114.834C1361.61 115.169 1362.5 115.158 1363.29 114.819C1364.06 114.49 1364.68 113.86 1364.98 113.083Z" fill="white"/>
<path d="M1380.34 104.786C1381.42 107.296 1380.21 110.283 1377.68 111.382C1375.17 112.471 1372.2 111.3 1371.11 108.79L1368.83 103.528C1368.56 102.911 1368.85 102.132 1369.49 101.855C1370.15 101.568 1370.89 101.899 1371.16 102.515L1373.44 107.777C1373.99 109.032 1375.41 109.593 1376.66 109.048C1377.94 108.494 1378.52 107.064 1378 105.799L1375.72 100.537C1375.45 99.9209 1375.7 99.1603 1376.36 98.8736C1376.97 98.6061 1377.78 98.9081 1378.05 99.5245L1380.34 104.786Z" fill="white"/>
<path d="M1385 95.0382C1385.66 94.7474 1386.46 95.0222 1386.76 95.7028C1387.05 96.3615 1386.72 97.1624 1386.06 97.4532L1385.51 97.6956L1388.22 103.821C1388.9 103.52 1389.67 103.837 1389.97 104.517C1390.27 105.198 1389.98 105.957 1389.3 106.258C1387.96 106.849 1386.37 106.236 1385.78 104.897L1383.08 98.7717L1382.44 99.0529C1381.76 99.3534 1380.99 99.0372 1380.7 98.3786C1380.4 97.698 1380.69 96.9384 1381.37 96.6379L1382.01 96.3567L1380.61 93.1733C1380.3 92.4927 1380.62 91.7234 1381.3 91.4229C1381.98 91.1223 1382.74 91.4165 1383.04 92.0971L1384.45 95.2806L1385 95.0382Z" fill="white"/>
<path d="M1398.96 88.7921C1399.6 88.5078 1400.37 88.7667 1400.66 89.4239L1402.98 94.5941L1404.37 97.705C1405.68 100.641 1404.39 103.98 1401.48 105.283C1400.69 105.636 1399.78 105.78 1398.97 105.745C1398.24 105.757 1397.72 105.176 1397.71 104.444C1397.76 103.791 1398.39 103.217 1399.05 103.267C1399.55 103.278 1400.02 103.201 1400.46 103.005C1401.74 102.405 1402.46 101.082 1402.3 99.7862C1401.85 100.411 1401.18 100.92 1400.46 101.243C1397.94 102.37 1394.95 101.21 1393.82 98.6908L1391.51 93.5206C1391.21 92.8634 1391.53 92.1145 1392.13 91.8499C1392.81 91.5461 1393.51 91.8343 1393.81 92.4916L1396.12 97.6618C1396.69 98.9324 1398.15 99.4357 1399.4 98.8771C1400.65 98.3184 1401.22 96.9037 1400.65 95.633L1398.34 90.4628C1398.05 89.8056 1398.3 89.0861 1398.96 88.7921Z" fill="white"/>
<path d="M1428.85 88.2191C1428.18 88.5335 1427.4 88.2332 1427.1 87.5806L1421.17 74.8559C1420.87 74.2251 1421.13 73.4162 1421.8 73.1018C1422.48 72.7874 1423.26 73.1095 1423.56 73.7403L1426.47 79.983L1430.22 69.6276C1430.48 68.9259 1431.22 68.5811 1431.92 68.8365C1432.59 69.0802 1432.94 69.8416 1432.71 70.5331L1430.14 77.528L1437.92 81.6061C1438.59 81.9035 1438.86 82.7054 1438.53 83.3621C1438.41 83.6593 1438.19 83.868 1437.9 83.9999C1437.58 84.152 1437.18 84.1519 1436.81 83.9807L1429.24 80.0157L1428.05 83.3762L1429.49 86.4649C1429.8 87.1175 1429.53 87.9047 1428.85 88.2191Z" fill="white"/>
<path d="M1449.49 78.4995C1448 79.2134 1446.44 79.1855 1444.98 78.6333C1443.6 78.1254 1442.39 77.0518 1441.67 75.5359C1440.96 74.0633 1440.92 72.5167 1441.35 71.0323C1441.84 69.5489 1442.8 68.3208 1444.29 67.6069C1445.72 66.924 1447.32 66.9312 1448.69 67.5248C1450.16 68.0987 1451.32 69.1176 1452.02 70.5902C1452.74 72.1061 1452.84 73.7073 1452.32 75.1258C1451.92 76.5678 1450.92 77.8166 1449.49 78.4995ZM1443.73 71.7835C1443.51 72.6062 1443.6 73.5202 1444.03 74.4081C1444.47 75.3393 1445.12 75.9627 1445.9 76.3311C1446.69 76.5921 1447.54 76.5322 1448.37 76.139C1449.12 75.7769 1449.68 75.1643 1449.98 74.3859C1450.23 73.5209 1450.17 72.6181 1449.72 71.6869C1449.3 70.7991 1448.62 70.1643 1447.8 69.8383C1447.03 69.6206 1446.18 69.6052 1445.42 69.9673C1444.59 70.3605 1444.05 71.0484 1443.73 71.7835Z" fill="white"/>
<path d="M1463.29 71.695C1460.31 73.1466 1456.63 71.9506 1455.19 68.9952C1453.73 65.9967 1455.06 62.382 1458.03 60.9089C1459.33 60.2778 1460.77 60.1633 1462.04 60.4229C1462.73 60.5693 1463.17 61.2607 1463.06 61.9036C1462.88 62.6317 1462.23 63.0546 1461.54 62.9082C1460.78 62.7718 1459.95 62.8279 1459.16 63.2171C1457.41 64.0691 1456.67 66.2192 1457.48 67.8803C1458.29 69.5413 1460.43 70.2604 1462.18 69.4084C1462.95 69.0297 1463.53 68.4021 1463.89 67.7188C1464.18 67.1207 1464.94 66.8598 1465.62 67.1672C1466.2 67.4735 1466.45 68.2059 1466.16 68.8792C1465.56 70.0003 1464.58 71.0639 1463.29 71.695Z" fill="white"/>
<path d="M1469.13 61.258L1471.54 66.1158C1471.87 66.7822 1471.59 67.5649 1470.93 67.8959C1470.39 68.1628 1469.75 68 1469.35 67.5804C1469.29 67.5051 1469.21 67.4083 1469.16 67.3008L1462.86 54.6189C1462.53 53.9525 1462.81 53.1697 1463.45 52.8495C1464.12 52.5185 1464.91 52.7675 1465.25 53.4339L1467.1 57.174C1467.61 56.4669 1468.25 55.8247 1469.09 55.4083C1471.69 54.1165 1474.84 55.209 1476.12 57.7884L1478.53 62.6462C1478.86 63.3125 1478.6 64.0846 1477.93 64.4156C1477.27 64.7465 1476.5 64.4869 1476.17 63.8205L1473.75 58.9627C1473.12 57.6945 1471.58 57.1752 1470.28 57.7942C1469.02 58.4456 1468.52 59.9791 1469.13 61.258Z" fill="white"/>
<path d="M1489.22 46.6409L1491.37 50.8552L1493.5 55.0482C1493.81 55.6685 1493.56 56.4431 1492.94 56.7586C1492.38 57.0414 1491.75 56.8526 1491.36 56.4044C1490.84 57.3954 1490.05 58.2273 1488.98 58.7712C1487.53 59.511 1485.96 59.5539 1484.55 59.0591C1483.13 58.5428 1481.92 57.4885 1481.18 56.0338C1480.43 54.5577 1480.29 52.9594 1480.72 51.5289C1481.14 50.077 1482.09 48.8148 1483.54 48.075C1484.61 47.531 1485.76 47.4051 1486.87 47.5693C1486.72 46.9692 1486.95 46.3452 1487.5 46.0623C1488.12 45.7468 1488.9 45.9991 1489.22 46.6409ZM1489.38 54.6362C1489.62 53.8188 1489.54 52.8855 1489.1 52.0084C1488.64 51.1099 1487.93 50.503 1487.14 50.2293C1486.34 49.9128 1485.46 49.9832 1484.71 50.364C1483.94 50.7556 1483.36 51.425 1483.16 52.2529C1482.92 53.0488 1483.02 53.9712 1483.47 54.8697C1483.92 55.7468 1484.61 56.3646 1485.41 56.6597C1486.17 56.9443 1487.05 56.8739 1487.82 56.4822C1488.57 56.1015 1489.14 55.4321 1489.38 54.6362Z" fill="white"/>
</svg>
