<svg width="1512" height="283" viewBox="0 0 1512 283" fill="none" xmlns="http://www.w3.org/2000/svg">
<path d="M-1.83716 115.024C62.1628 66.1906 145.163 1.02393 278.163 1.02393C314.823 1.02393 357.163 13.7363 397.163 36.0239C523.163 106.23 683.305 204.242 843.663 217.024C1009.14 230.214 1336.83 105.857 1511.66 9.02393V78.5239C1330.01 172.484 1047.53 272.524 912.663 281.524C888.08 283.164 801.694 283.244 791.663 281.524C624.663 252.895 413.628 100.687 358.163 76.5239C341.266 69.163 293.663 59.0239 269.663 59.0239C176.163 49.5239 68.6628 135.024 -1.83716 190.024V159.024V115.024Z" fill="#F28627"/>
<path d="M22.1565 139.483C21.565 139.935 20.7432 139.807 20.3064 139.235L11.7897 128.073C11.3675 127.519 11.4469 126.674 12.0384 126.223C12.6298 125.771 13.4663 125.918 13.8885 126.471L18.0668 131.947L19.5172 121.029C19.6167 120.289 20.2654 119.794 21.0055 119.894C21.7119 119.989 22.2214 120.657 22.141 121.382L21.1317 128.763L29.604 131.084C30.3205 131.231 30.7537 131.957 30.5724 132.669C30.5126 132.987 30.3419 133.238 30.0938 133.427C29.8076 133.645 29.4195 133.73 29.0204 133.642L20.779 131.387L20.3379 134.924L22.4052 137.633C22.842 138.206 22.748 139.032 22.1565 139.483Z" fill="white"/>
<path d="M38.4844 127.149C37.1652 128.15 35.6356 128.437 34.0934 128.191C32.633 127.974 31.2363 127.166 30.2207 125.828C29.2341 124.528 28.8751 123.023 29.0008 121.481C29.1792 119.93 29.8672 118.534 31.1864 117.533C32.4482 116.575 34.016 116.259 35.4817 116.563C37.0385 116.827 38.3724 117.593 39.359 118.893C40.3747 120.231 40.7963 121.779 40.5744 123.273C40.4724 124.766 39.7461 126.191 38.4844 127.149ZM31.4839 121.736C31.4359 122.586 31.7097 123.462 32.3046 124.246C32.9284 125.068 33.6848 125.549 34.5307 125.75C35.3569 125.847 36.1764 125.616 36.9029 125.065C37.572 124.557 37.9952 123.844 38.1249 123.023C38.1966 122.125 37.9564 121.253 37.3325 120.43C36.7377 119.647 35.9477 119.162 35.078 119.008C34.2809 118.95 33.437 119.109 32.7678 119.616C32.0414 120.168 31.6426 120.952 31.4839 121.736Z" fill="white"/>
<path d="M50.6798 117.973C48.0225 119.95 44.1844 119.455 42.2218 116.817C40.2305 114.14 40.8739 110.341 43.5168 108.345C44.6722 107.485 46.0656 107.107 47.3664 107.126C48.0671 107.143 48.6312 107.741 48.6383 108.394C48.597 109.142 48.0381 109.678 47.3374 109.661C46.5646 109.667 45.7621 109.875 45.0497 110.405C43.49 111.566 43.1597 113.816 44.2628 115.298C45.3659 116.781 47.6016 117.092 49.1612 115.932C49.8544 115.416 50.3036 114.693 50.5321 113.955C50.7121 113.312 51.4049 112.916 52.1338 113.092C52.7571 113.286 53.1385 113.96 52.9821 114.674C52.5982 115.887 51.8351 117.113 50.6798 117.973Z" fill="white"/>
<path d="M55.2937 106.32L58.4724 110.715C58.9085 111.318 58.7599 112.137 58.157 112.573C57.6709 112.924 57.0093 112.87 56.5497 112.521C56.474 112.457 56.3842 112.374 56.3139 112.277L48.0153 100.803C47.5793 100.2 47.7279 99.382 48.3113 98.96C48.9141 98.524 49.7378 98.6391 50.1739 99.2419L52.6212 102.626C53.0044 101.845 53.5357 101.105 54.2941 100.557C56.6471 98.8548 59.9259 99.4156 61.6138 101.749L64.7925 106.144C65.2286 106.747 65.0994 107.551 64.4966 107.987C63.8937 108.423 63.0894 108.294 62.6534 107.691L59.4746 103.296C58.6448 102.149 57.0362 101.891 55.8554 102.715C54.7221 103.565 54.4832 105.159 55.2937 106.32Z" fill="white"/>
<path d="M70.6667 90.7523L73.3651 94.6347L76.0497 98.4974C76.4469 99.0689 76.3027 99.8706 75.7312 100.268C75.2188 100.624 74.5644 100.523 74.1174 100.133C73.7383 101.185 73.0707 102.117 72.0853 102.802C70.7452 103.733 69.1989 103.99 67.7351 103.692C66.2576 103.374 64.9157 102.495 63.9843 101.155C63.0392 99.7947 62.6826 98.2304 62.9137 96.7546C63.1311 95.2591 63.8966 93.8795 65.2367 92.948C66.2221 92.2632 67.3418 91.9818 68.4605 91.9935C68.2363 91.4186 68.3702 90.7702 68.8826 90.4141C69.4541 90.0169 70.2558 90.1611 70.6667 90.7523ZM71.9183 98.6507C72.0352 97.8096 71.8377 96.8946 71.2761 96.0866C70.7008 95.2589 69.9121 94.7549 69.0967 94.5909C68.2539 94.3876 67.3921 94.5774 66.7023 95.0568C65.9928 95.5499 65.5145 96.2915 65.4311 97.1386C65.3005 97.96 65.5177 98.8613 66.093 99.689C66.6546 100.497 67.4236 101.015 68.2527 101.198C69.0484 101.376 69.9102 101.186 70.6197 100.693C71.3094 100.214 71.7877 99.4721 71.9183 98.6507Z" fill="white"/>
<path d="M86.7862 93.1373C86.1815 93.528 85.3519 93.3497 84.9612 92.745L77.2763 80.8518C76.8725 80.2269 77.0638 79.4175 77.6686 79.0267C77.6887 79.0137 77.6887 79.0137 77.729 78.9877C77.729 78.9877 77.729 78.9877 77.7492 78.9746L80.531 77.1771C82.6476 75.8095 85.4682 76.4158 86.8358 78.5324C87.3959 79.3991 87.6217 80.3677 87.5547 81.3253C89.2591 81.3098 90.9583 82.1264 91.9482 83.6584C93.4982 86.0572 92.8135 89.2427 90.4348 90.7797L86.8669 93.0852C86.8467 93.0982 86.8337 93.0781 86.8337 93.0781C86.7934 93.1041 86.8064 93.1243 86.7862 93.1373ZM80.2432 80.5348L82.3273 83.7601L84.0608 82.6399C84.9478 82.0668 85.1714 80.8651 84.5983 79.9782C84.0252 79.0912 82.8637 78.8416 81.9768 79.4147L80.2432 80.5348ZM83.7731 85.9976L86.4693 90.1703L88.989 88.5422C90.125 87.7796 90.4661 86.2733 89.7107 85.1042C88.9682 83.9552 87.4548 83.6472 86.2928 84.3695L83.7731 85.9976Z" fill="white"/>
<path d="M101.417 84.1458C98.5939 85.8319 95.0118 84.8342 93.2972 82.0567C91.6236 79.2543 92.378 75.5953 95.1884 73.8887C97.8553 72.2694 101.177 72.9762 103.022 75.646C103.035 75.6665 103.06 75.7075 103.085 75.7485C103.11 75.7896 103.172 75.8921 103.176 75.9456C103.414 76.4753 103.182 77.0651 102.608 77.4139L96.0842 81.3752C96.4733 81.7847 97.0228 82.1811 97.6039 82.3056C98.3336 82.5363 99.3784 82.4073 100.134 82.0329C100.91 81.646 101.68 80.9257 101.956 80.2245C102.113 79.5116 102.991 79.0624 103.457 79.2287C103.898 79.354 104.477 79.8448 104.267 80.5621C103.822 82.0957 102.873 83.2614 101.417 84.1458ZM96.3718 75.8376C94.678 76.9785 94.5762 78.753 94.9228 79.6937L100.728 76.1685C100.025 75.4725 98.2438 74.8975 96.3718 75.8376Z" fill="white"/>
<path d="M113.047 65.2786L115.372 69.3954L117.685 73.4914C118.027 74.0974 117.809 74.8822 117.203 75.2245C116.66 75.5313 116.018 75.3703 115.609 74.9396C115.134 75.9523 114.382 76.8177 113.337 77.4078C111.916 78.2103 110.353 78.3215 108.923 77.8886C107.481 77.4348 106.227 76.4342 105.425 75.0131C104.61 73.5712 104.401 71.9805 104.769 70.5326C105.124 69.0638 106.015 67.7615 107.436 66.9589C108.481 66.3688 109.622 66.193 110.735 66.3088C110.565 65.7155 110.759 65.0824 111.302 64.7756C111.908 64.4333 112.693 64.6516 113.047 65.2786ZM113.557 73.2592C113.752 72.4326 113.641 71.5032 113.157 70.6464C112.661 69.7687 111.923 69.1934 111.126 68.9542C110.306 68.6732 109.43 68.7819 108.699 69.195C107.947 69.6199 107.401 70.3137 107.239 71.1494C107.033 71.9551 107.165 72.8726 107.661 73.7503C108.145 74.6071 108.862 75.1942 109.671 75.4543C110.446 75.7053 111.322 75.5966 112.074 75.1717C112.806 74.7587 113.351 74.0648 113.557 73.2592Z" fill="white"/>
<path d="M127.892 64.173C129.157 66.599 128.157 69.6647 125.71 70.9408C123.284 72.2059 120.241 71.2487 118.976 68.8227L116.324 63.7367C116.013 63.1408 116.246 62.3425 116.863 62.0207C117.502 61.6878 118.269 61.9646 118.579 62.5604L121.231 67.6464C121.864 68.8594 123.321 69.3177 124.534 68.6851C125.768 68.0415 126.248 66.5734 125.636 65.3493L122.984 60.2633C122.674 59.6675 122.864 58.8913 123.503 58.5584C124.099 58.2477 124.929 58.4912 125.24 59.087L127.892 64.173Z" fill="white"/>
<path d="M132.642 54.3415C133.292 54.0321 134.103 54.2839 134.423 54.9557C134.732 55.6058 134.427 56.4157 133.777 56.7252L133.235 56.9831L136.113 63.029C136.785 62.7092 137.563 63.0034 137.882 63.6752C138.202 64.3469 137.93 65.1146 137.258 65.4344C135.936 66.0636 134.337 65.4959 133.708 64.1741L130.829 58.1282L130.201 58.4273C129.529 58.7471 128.751 58.453 128.442 57.8029C128.122 57.1311 128.395 56.3634 129.066 56.0436L129.695 55.7445L128.199 52.6024C127.879 51.9306 128.173 51.1526 128.845 50.8328C129.517 50.513 130.284 50.7855 130.604 51.4573L132.1 54.5994L132.642 54.3415Z" fill="white"/>
<path d="M144.086 49.2709C144.722 48.9868 145.495 49.2459 145.789 49.9032L148.1 55.074L149.491 58.1853C150.804 61.1213 149.51 64.4601 146.596 65.7628C145.807 66.1154 144.898 66.2588 144.094 66.2239C143.363 66.2353 142.84 65.654 142.829 64.923C142.879 64.2698 143.516 63.6958 144.169 63.7455C144.673 63.7566 145.139 63.6801 145.577 63.4842C146.86 62.8844 147.583 61.562 147.424 60.266C146.968 60.8908 146.301 61.3991 145.578 61.7223C143.058 62.8487 140.068 61.688 138.942 59.1683L136.63 53.9975C136.336 53.3402 136.659 52.5913 137.25 52.3269C137.93 52.0232 138.637 52.3117 138.931 52.969L141.242 58.1398C141.811 59.4106 143.271 59.9143 144.52 59.356C145.769 58.7977 146.346 57.3831 145.778 56.1123L143.466 50.9415C143.172 50.2842 143.429 49.5647 144.086 49.2709Z" fill="white"/>
<path d="M171.674 51.8795C170.971 52.1223 170.231 51.7432 169.996 51.0626L165.413 37.7916C165.186 37.1338 165.526 36.3559 166.23 36.1131C166.933 35.8702 167.681 36.272 167.908 36.9299L170.156 43.4406L174.961 33.5297C175.287 32.8583 176.059 32.5919 176.73 32.9187C177.371 33.2305 177.645 34.0245 177.341 34.6881L174.066 41.3797L181.382 46.2421C182.016 46.6071 182.199 47.4325 181.803 48.0515C181.647 48.334 181.406 48.5188 181.111 48.6206C180.771 48.7381 180.376 48.6968 180.024 48.4881L172.907 43.7602L171.379 46.9796L172.491 50.2009C172.726 50.8815 172.377 51.6366 171.674 51.8795Z" fill="white"/>
<path d="M190.371 46.291C188.781 46.7533 187.25 46.4736 185.898 45.6919C184.612 44.966 183.597 43.7114 183.128 42.0982C182.673 40.5311 182.877 38.9972 183.546 37.6029C184.268 36.2182 185.411 35.1613 187.001 34.699C188.522 34.2568 190.099 34.5231 191.359 35.3316C192.717 36.1363 193.689 37.3285 194.144 38.8956C194.613 40.5088 194.453 42.1051 193.71 43.4206C193.08 44.7785 191.892 45.8488 190.371 46.291ZM185.773 38.7299C185.424 39.5063 185.366 40.423 185.64 41.3679C185.929 42.3589 186.463 43.0784 187.18 43.5695C187.917 43.9551 188.765 44.0336 189.641 43.779C190.447 43.5445 191.098 43.0305 191.513 42.3099C191.901 41.4972 191.99 40.5968 191.701 39.6058C191.427 38.6609 190.863 37.9251 190.106 37.4703C189.382 37.1308 188.538 36.9765 187.731 37.211C186.855 37.4656 186.202 38.0554 185.773 38.7299Z" fill="white"/>
<path d="M204.134 42.8451C200.917 43.634 197.573 41.6865 196.79 38.4931C195.995 35.2532 198.065 32.0027 201.276 31.1905C202.674 30.8475 204.105 31.0402 205.296 31.5636C205.935 31.8517 206.223 32.6213 205.976 33.2256C205.647 33.8993 204.924 34.1755 204.285 33.8874C203.57 33.5932 202.75 33.4731 201.887 33.6846C199.999 34.1476 198.82 36.0924 199.261 37.8872C199.701 39.682 201.64 40.8374 203.528 40.3743C204.367 40.1686 205.062 39.6769 205.559 39.0854C205.975 38.5634 206.767 38.4679 207.37 38.913C207.869 39.3344 207.959 40.1031 207.537 40.7008C206.712 41.6692 205.532 42.5021 204.134 42.8451Z" fill="white"/>
<path d="M212.572 34.2784L213.659 39.5925C213.808 40.3215 213.335 41.006 212.606 41.155C212.018 41.2752 211.438 40.9529 211.163 40.4457C211.12 40.3565 211.073 40.2437 211.049 40.1261L208.212 26.2531C208.063 25.5242 208.536 24.8396 209.241 24.6954C209.97 24.5464 210.673 24.9906 210.822 25.7195L211.659 29.8109C212.329 29.2573 213.118 28.8021 214.035 28.6146C216.88 28.0329 219.637 29.8945 220.214 32.7161L221.3 38.0302C221.449 38.7591 221.001 39.4388 220.272 39.5879C219.543 39.7369 218.863 39.2879 218.714 38.559L217.628 33.2449C217.344 31.8576 215.985 30.9597 214.569 31.2246C213.186 31.5317 212.312 32.8863 212.572 34.2784Z" fill="white"/>
<path d="M233.176 26.8497L233.929 31.5174L234.678 36.1614C234.789 36.8486 234.312 37.5089 233.625 37.6197C233.009 37.719 232.462 37.3452 232.228 36.7995C231.431 37.5844 230.426 38.1354 229.241 38.3265C227.63 38.5863 226.125 38.1482 224.934 37.2463C223.74 36.3206 222.911 34.9471 222.651 33.3359C222.387 31.701 222.743 30.1365 223.59 28.906C224.433 27.6518 225.72 26.7393 227.331 26.4795C228.516 26.2885 229.647 26.5193 230.65 27.0139C230.697 26.3986 231.098 25.872 231.714 25.7727C232.402 25.6619 233.062 26.1389 233.176 26.8497ZM230.887 34.5118C231.356 33.8041 231.574 32.8938 231.418 31.9224C231.257 30.9272 230.764 30.1315 230.1 29.6309C229.428 29.0828 228.569 28.881 227.74 29.0147C226.887 29.1523 226.135 29.6139 225.693 30.3415C225.22 31.0255 225.026 31.932 225.186 32.9271C225.343 33.8986 225.812 34.6981 226.48 35.2224C227.12 35.7269 227.979 35.9287 228.832 35.7912C229.662 35.6575 230.414 35.1959 230.887 34.5118Z" fill="white"/>
<path d="M245.255 36.502C244.539 36.5764 243.88 36.0416 243.806 35.3254L242.343 21.2412C242.267 20.5012 242.804 19.8663 243.52 19.7919C243.544 19.7894 243.544 19.7894 243.592 19.7845C243.592 19.7845 243.592 19.7845 243.615 19.782L246.91 19.4399C249.416 19.1796 251.656 20.9979 251.916 23.5045C252.023 24.5309 251.785 25.4966 251.292 26.32C252.818 27.0784 253.963 28.5762 254.152 30.3904C254.447 33.2311 252.393 35.7608 249.576 36.0533L245.351 36.4921C245.327 36.4946 245.325 36.4707 245.325 36.4707C245.277 36.4757 245.279 36.4996 245.255 36.502ZM245.132 22.3028L245.529 26.1223L247.582 25.9091C248.632 25.8 249.376 24.83 249.267 23.7796C249.158 22.7293 248.235 21.9805 247.185 22.0896L245.132 22.3028ZM245.804 28.772L246.317 33.7135L249.301 33.4036C250.659 33.2384 251.646 32.0501 251.502 30.6656C251.361 29.3049 250.151 28.3447 248.788 28.4621L245.804 28.772Z" fill="white"/>
<path d="M262.501 35.2832C259.218 35.4676 256.508 32.9222 256.277 29.6662C256.094 26.4073 258.46 23.5156 261.741 23.3073C264.855 23.1097 267.47 25.2764 267.866 28.4978C267.868 28.5217 267.871 28.5696 267.874 28.6175C267.877 28.6654 267.885 28.7852 267.864 28.8346C267.828 29.414 267.35 29.8292 266.679 29.8717L259.062 30.3552C259.217 30.8985 259.52 31.5045 259.977 31.8843C260.517 32.4272 261.502 32.7976 262.345 32.8162C263.212 32.8333 264.228 32.5524 264.798 32.0593C265.267 31.5004 266.254 31.51 266.59 31.8734C266.922 32.189 267.207 32.8923 266.688 33.4303C265.583 34.5826 264.202 35.1753 262.501 35.2832ZM261.886 25.5828C259.856 25.8078 258.943 27.3327 258.813 28.3269L265.592 27.8967C265.291 26.9538 263.98 25.6182 261.886 25.5828Z" fill="white"/>
<path d="M280.373 24.1363L280.495 28.8627L280.616 33.5652C280.634 34.2609 280.073 34.8516 279.377 34.8695C278.753 34.8856 278.262 34.4421 278.103 33.87C277.208 34.5412 276.138 34.9529 274.939 34.9838C273.307 35.0258 271.874 34.3904 270.815 33.3374C269.755 32.2603 269.117 30.7882 269.075 29.1568C269.032 27.5013 269.594 25.9984 270.597 24.8922C271.601 23.762 272.998 23.0298 274.63 22.9877C275.829 22.9569 276.92 23.3369 277.848 23.9612C277.976 23.3577 278.445 22.8895 279.068 22.8735C279.764 22.8556 280.355 23.4165 280.373 24.1363ZM277.08 31.4235C277.639 30.7849 277.977 29.9119 277.952 28.9282C277.926 27.9205 277.544 27.0661 276.952 26.4811C276.36 25.8482 275.536 25.5333 274.696 25.5549C273.832 25.5771 273.025 25.934 272.49 26.596C271.93 27.2106 271.616 28.083 271.642 29.0907C271.667 30.0744 272.025 30.9294 272.617 31.5384C273.184 32.124 274.009 32.4389 274.873 32.4166C275.712 32.395 276.519 32.0381 277.08 31.4235Z" fill="white"/>
<path d="M295.321 30.5771C295.22 33.3112 292.834 35.4802 290.075 35.3778C287.341 35.2763 285.171 32.9382 285.272 30.2041L285.485 24.472C285.51 23.8005 286.108 23.2223 286.803 23.2481C287.523 23.2748 288.052 23.8949 288.027 24.5664L287.814 30.2985C287.764 31.6655 288.803 32.7848 290.17 32.8356C291.561 32.8872 292.704 31.8489 292.779 30.4827L292.992 24.7507C293.017 24.0791 293.566 23.4991 294.286 23.5258C294.957 23.5508 295.559 24.1735 295.534 24.845L295.321 30.5771Z" fill="white"/>
<path d="M302.865 24.9249C303.58 25.0106 304.131 25.6567 304.043 26.3954C303.957 27.1103 303.266 27.6318 302.551 27.5461L301.956 27.4747L301.159 34.1231C301.897 34.2117 302.398 34.876 302.309 35.6147C302.221 36.3534 301.58 36.8568 300.842 36.7682C299.388 36.594 298.339 35.2597 298.514 33.8061L299.31 27.1577L298.619 27.0749C297.881 26.9863 297.38 26.3221 297.466 25.6072C297.554 24.8685 298.195 24.3651 298.934 24.4536L299.625 24.5365L300.039 21.0812C300.127 20.3425 300.792 19.842 301.53 19.9305C302.269 20.019 302.772 20.6595 302.684 21.3982L302.27 24.8535L302.865 24.9249Z" fill="white"/>
<path d="M315.184 27.1089C315.871 27.2249 316.37 27.8692 316.25 28.5791L315.307 34.1639L314.739 37.5243C314.203 40.6953 311.274 42.7562 308.127 42.2243C307.275 42.0804 306.44 41.6958 305.79 41.2208C305.175 40.8249 305.062 40.0513 305.458 39.4367C305.862 38.9207 306.71 38.7964 307.226 39.2C307.64 39.4889 308.07 39.6832 308.543 39.7632C309.943 39.9755 311.278 39.2762 311.865 38.1096C311.138 38.3763 310.302 38.4296 309.521 38.2977C306.799 37.8378 304.955 35.2138 305.415 32.4923L306.358 26.9075C306.478 26.1976 307.162 25.7533 307.801 25.8613C308.535 25.9852 308.963 26.6175 308.843 27.3274L307.9 32.9122C307.668 34.2848 308.604 35.514 309.953 35.7419C311.302 35.9698 312.566 35.1126 312.798 33.74L313.742 28.1552C313.862 27.4453 314.474 26.989 315.184 27.1089Z" fill="white"/>
<path d="M334.736 45.2459C334.027 45.0219 333.658 44.2763 333.875 43.5897L338.103 30.2013C338.312 29.5376 339.049 29.116 339.759 29.34C340.468 29.564 340.83 30.3325 340.62 30.9962L338.546 37.5645L348.31 32.4679C348.972 32.1234 349.75 32.3691 350.095 33.0315C350.424 33.6639 350.171 34.4649 349.531 34.8167L342.914 38.2389L345.892 46.5031C346.183 47.174 345.839 47.9461 345.152 48.2075C344.858 48.3412 344.555 48.346 344.257 48.2521C343.914 48.1437 343.621 47.8751 343.463 47.4981L340.565 39.4604L337.419 41.1348L336.393 44.3846C336.176 45.0712 335.446 45.4699 334.736 45.2459Z" fill="white"/>
<path d="M352.254 51.8659C350.71 51.2677 349.663 50.1158 349.063 48.6739C348.483 47.3164 348.438 45.7034 349.045 44.1369C349.635 42.6151 350.728 41.5201 352.107 40.8187C353.521 40.1571 355.071 40.0109 356.615 40.6091C358.092 41.1813 359.183 42.3505 359.693 43.7578C360.284 45.2222 360.332 46.7593 359.743 48.2811C359.136 49.8476 358.039 51.0184 356.65 51.613C355.325 52.3093 353.731 52.4381 352.254 51.8659ZM353.192 43.0666C352.443 43.4714 351.84 44.1644 351.485 45.0819C351.112 46.0442 351.099 46.9402 351.371 47.7662C351.723 48.5201 352.348 49.0971 353.199 49.4266C353.982 49.73 354.811 49.7165 355.579 49.3962C356.381 48.9863 356.997 48.3244 357.37 47.3621C357.726 46.4445 357.725 45.5175 357.399 44.6965C357.03 43.9874 356.453 43.3519 355.67 43.0485C354.819 42.719 353.942 42.791 353.192 43.0666Z" fill="white"/>
<path d="M364.756 57.4002C361.731 56.0501 360.285 52.4607 361.625 49.4583C362.985 46.412 366.613 45.1143 369.647 46.4425C370.962 47.0295 371.974 48.0595 372.594 49.2034C372.922 49.8229 372.677 50.6072 372.111 50.9328C371.438 51.2631 370.697 51.0377 370.369 50.4182C369.986 49.7474 369.411 49.1495 368.601 48.7875C366.825 47.995 364.702 48.8078 363.948 50.4953C363.195 52.1828 364.018 54.2847 365.793 55.0772C366.582 55.4294 367.432 55.4673 368.188 55.3053C368.836 55.148 369.52 55.5585 369.724 56.2801C369.859 56.9188 369.458 57.581 368.759 57.7943C367.513 58.053 366.071 57.9872 364.756 57.4002Z" fill="white"/>
<path d="M376.758 55.9334L374.328 60.7826C373.995 61.4477 373.2 61.6939 372.535 61.3606C371.999 61.0917 371.742 60.4797 371.839 59.911C371.86 59.8144 371.892 59.6963 371.946 59.5891L378.29 46.9297C378.624 46.2646 379.418 46.0184 380.062 46.341C380.727 46.6743 381.005 47.4581 380.672 48.1233L378.801 51.8567C379.67 51.836 380.572 51.9656 381.409 52.385C384.005 53.686 385.022 56.8532 383.731 59.428L381.301 64.2772C380.968 64.9423 380.195 65.1992 379.53 64.8659C378.865 64.5326 378.608 63.7596 378.941 63.0944L381.371 58.2452C382.006 56.9793 381.492 55.4333 380.215 54.7666C378.938 54.1537 377.414 54.6782 376.758 55.9334Z" fill="white"/>
<path d="M397.546 62.9091L395.243 67.0387L392.953 71.1473C392.614 71.7552 391.83 71.9778 391.222 71.6389C390.677 71.335 390.48 70.703 390.635 70.1298C389.523 70.2517 388.392 70.0612 387.344 69.4768C385.919 68.6821 385.009 67.4056 384.634 65.9598C384.27 64.493 384.471 62.9012 385.265 61.4757C386.072 60.0293 387.32 59.0219 388.748 58.5811C390.187 58.1194 391.762 58.201 393.188 58.9957C394.236 59.58 394.981 60.4623 395.462 61.4724C395.879 61.0184 396.521 60.8539 397.066 61.1578C397.674 61.4967 397.896 62.2802 397.546 62.9091ZM391 67.5032C391.807 67.2387 392.542 66.6593 393.021 65.7999C393.512 64.9195 393.619 63.9895 393.408 63.185C393.22 62.3385 392.671 61.6477 391.937 61.2386C391.183 60.8179 390.306 60.714 389.509 61.0112C388.713 61.2548 387.999 61.8458 387.508 62.7262C387.029 63.5857 386.902 64.5039 387.101 65.3294C387.291 66.1223 387.84 66.8131 388.595 67.2339C389.329 67.6429 390.205 67.7468 391 67.5032Z" fill="white"/>
<path d="M403.194 78.3775C402.567 78.0247 402.338 77.2076 402.69 76.58L409.629 64.2367C409.994 63.5882 410.799 63.3801 411.427 63.7329C411.448 63.7447 411.448 63.7447 411.49 63.7682C411.49 63.7682 411.49 63.7682 411.51 63.78L414.398 65.403C416.594 66.6379 417.373 69.4158 416.138 71.6125C415.632 72.5121 414.881 73.1634 414.002 73.5506C414.811 75.0512 414.88 76.9351 413.986 78.5251C412.587 81.0147 409.449 81.894 406.981 80.5062L403.278 78.4245C403.257 78.4128 403.269 78.3919 403.269 78.3919C403.227 78.3683 403.215 78.3893 403.194 78.3775ZM411.293 66.7137L409.411 70.0611L411.21 71.0725C412.131 71.59 413.298 71.2276 413.816 70.307C414.333 69.3865 414.013 68.2427 413.092 67.7252L411.293 66.7137ZM408.106 72.3833L405.671 76.7139L408.286 78.184C409.491 78.8335 410.982 78.433 411.664 77.2196C412.335 76.0271 411.902 74.5447 410.721 73.8534L408.106 72.3833Z" fill="white"/>
<path d="M419.005 87.2827C416.152 85.6479 415.266 82.0364 416.848 79.1809C418.471 76.3488 422.03 75.2137 424.895 76.8276C427.613 78.359 428.624 81.6006 427.201 84.5177C427.189 84.5386 427.166 84.5804 427.142 84.6222C427.119 84.6641 427.06 84.7686 427.015 84.7986C426.67 85.2651 426.042 85.3523 425.457 85.0225L418.807 81.2765C418.641 81.8164 418.565 82.4896 418.741 83.0571C418.897 83.8063 419.522 84.6539 420.218 85.1289C420.935 85.6157 421.941 85.9341 422.687 85.8313C423.385 85.6186 424.207 86.1643 424.291 86.652C424.398 87.0979 424.253 87.843 423.525 88.0112C421.97 88.3749 420.489 88.119 419.005 87.2827ZM423.776 78.814C421.951 77.8964 420.354 78.6772 419.704 79.4403L425.622 82.7739C425.884 81.8197 425.512 79.9853 423.776 78.814Z" fill="white"/>
<path d="M440.259 86.9667L437.939 91.0866L435.632 95.1856C435.29 95.7921 434.506 96.0114 433.899 95.67C433.355 95.3638 433.161 94.731 433.318 94.1584C432.205 94.2756 431.076 94.0804 430.03 93.4917C428.608 92.691 427.704 91.4107 427.335 89.9633C426.977 88.495 427.184 86.904 427.985 85.4819C428.797 84.0389 430.05 83.0367 431.479 82.6019C432.92 82.1462 434.495 82.2344 435.918 83.0351C436.963 83.6238 437.704 84.5092 438.181 85.5213C438.601 85.0691 439.243 84.9072 439.786 85.2134C440.393 85.5548 440.612 86.3394 440.259 86.9667ZM433.694 91.5334C434.502 91.2722 435.24 90.696 435.723 89.8385C436.217 88.9602 436.327 88.0307 436.12 87.2253C435.936 86.378 435.39 85.6849 434.658 85.2728C433.905 84.8489 433.029 84.7414 432.23 85.0352C431.434 85.2754 430.717 85.8635 430.222 86.7418C429.74 87.5993 429.609 88.517 429.804 89.3433C429.991 90.1369 430.537 90.8301 431.29 91.2539C432.022 91.6661 432.898 91.7736 433.694 91.5334Z" fill="white"/>
<path d="M451.018 99.55C449.679 101.936 446.565 102.776 444.159 101.425C441.773 100.086 440.909 97.0147 442.248 94.6287L445.055 89.6265C445.384 89.0405 446.18 88.7992 446.787 89.1398C447.415 89.4922 447.603 90.2855 447.274 90.8716L444.467 95.8737C443.797 97.0667 444.211 98.5371 445.404 99.2066C446.617 99.8878 448.109 99.4863 448.799 98.305L451.606 93.3029C451.935 92.7168 452.689 92.452 453.317 92.8044C453.903 93.1332 454.154 93.9619 453.825 94.5479L451.018 99.55Z" fill="white"/>
<path d="M463.629 98.5517C464.258 98.9025 464.522 99.7095 464.16 100.359C463.809 100.988 462.972 101.208 462.343 100.857L461.819 100.565L458.557 106.412C459.206 106.775 459.417 107.58 459.055 108.229C458.692 108.879 457.908 109.101 457.259 108.739C455.98 108.026 455.517 106.393 456.23 105.115L459.492 99.267L458.885 98.9279C458.235 98.5654 458.024 97.7608 458.375 97.132C458.737 96.4823 459.521 96.2599 460.171 96.6224L460.779 96.9615L462.474 93.9224C462.837 93.2727 463.641 93.062 464.291 93.4245C464.941 93.787 465.163 94.5706 464.801 95.2204L463.105 98.2594L463.629 98.5517Z" fill="white"/>
<path d="M474.238 104.44C474.847 104.778 475.103 105.552 474.754 106.181L472.004 111.133L470.349 114.112C468.788 116.924 465.34 117.892 462.55 116.342C461.794 115.922 461.135 115.281 460.68 114.617C460.232 114.039 460.384 113.272 460.962 112.824C461.514 112.472 462.356 112.638 462.708 113.19C463.002 113.6 463.342 113.927 463.762 114.16C465.011 114.826 466.503 114.612 467.445 113.707C466.671 113.716 465.864 113.488 465.172 113.104C462.759 111.764 461.894 108.675 463.234 106.262L465.984 101.31C466.333 100.681 467.126 100.49 467.692 100.804C468.343 101.166 468.536 101.905 468.187 102.534L465.437 107.486C464.761 108.703 465.234 110.173 466.43 110.838C467.626 111.502 469.104 111.115 469.78 109.898L472.53 104.946C472.879 104.317 473.609 104.09 474.238 104.44Z" fill="white"/>
<path d="M504.347 134.461C503.691 134.109 503.467 133.308 503.807 132.674L510.441 120.3C510.77 119.686 511.572 119.408 512.228 119.76C512.884 120.112 513.097 120.934 512.768 121.547L509.513 127.618L520.052 124.417C520.767 124.201 521.486 124.587 521.702 125.302C521.908 125.984 521.511 126.725 520.817 126.952L513.68 129.089L515.076 137.762C515.238 138.475 514.757 139.17 514.034 139.3C513.72 139.377 513.421 139.325 513.146 139.178C512.829 139.008 512.591 138.69 512.506 138.29L511.146 129.855L507.744 130.917L506.134 133.921C505.794 134.556 505.003 134.812 504.347 134.461Z" fill="white"/>
<path d="M522.44 144.106C520.974 143.335 520.067 142.071 519.636 140.569C519.214 139.154 519.355 137.547 520.137 136.06C520.897 134.616 522.109 133.653 523.558 133.114C525.039 132.619 526.595 132.651 528.061 133.422C529.463 134.16 530.413 135.446 530.759 136.903C531.178 138.425 531.05 139.958 530.29 141.402C529.507 142.889 528.284 143.926 526.836 144.358C525.44 144.898 523.842 144.843 522.44 144.106ZM524.379 135.472C523.589 135.788 522.911 136.407 522.452 137.278C521.972 138.192 521.857 139.08 522.032 139.932C522.295 140.721 522.851 141.366 523.658 141.791C524.401 142.182 525.226 142.263 526.025 142.033C526.869 141.718 527.558 141.131 528.038 140.217C528.497 139.347 528.601 138.425 528.372 137.573C528.087 136.826 527.586 136.129 526.843 135.737C526.036 135.313 525.156 135.284 524.379 135.472Z" fill="white"/>
<path d="M536.589 151.34C533.646 149.82 532.406 146.155 533.914 143.233C535.445 140.269 539.141 139.179 542.095 140.677C543.374 141.338 544.326 142.424 544.88 143.601C545.172 144.238 544.883 145.007 544.3 145.3C543.609 145.592 542.882 145.325 542.59 144.688C542.245 143.996 541.706 143.367 540.917 142.959C539.189 142.067 537.023 142.758 536.175 144.4C535.327 146.042 536.029 148.188 537.756 149.079C538.524 149.476 539.371 149.562 540.135 149.443C540.791 149.323 541.451 149.772 541.613 150.504C541.712 151.149 541.274 151.787 540.563 151.96C539.305 152.148 537.869 152.001 536.589 151.34Z" fill="white"/>
<path d="M550.286 150.717L547.836 155.556C547.5 156.22 546.704 156.463 546.041 156.127C545.505 155.856 545.251 155.243 545.35 154.674C545.372 154.578 545.405 154.46 545.459 154.353L551.856 141.72C552.192 141.056 552.988 140.814 553.63 141.139C554.294 141.475 554.569 142.26 554.233 142.924L552.346 146.649C553.216 146.632 554.117 146.766 554.952 147.188C557.543 148.5 558.546 151.672 557.245 154.241L554.795 159.08C554.459 159.744 553.685 159.997 553.021 159.661C552.357 159.325 552.103 158.551 552.44 157.887L554.89 153.048C555.53 151.785 555.022 150.237 553.748 149.565C552.474 148.947 550.948 149.465 550.286 150.717Z" fill="white"/>
<path d="M570.967 156.571L568.868 160.807L566.78 165.022C566.471 165.646 565.699 165.906 565.075 165.597C564.516 165.32 564.288 164.698 564.415 164.118C563.31 164.294 562.172 164.158 561.097 163.626C559.634 162.901 558.664 161.67 558.219 160.244C557.784 158.797 557.907 157.197 558.632 155.735C559.367 154.251 560.565 153.184 561.97 152.675C563.385 152.144 564.962 152.149 566.425 152.873C567.5 153.406 568.286 154.251 568.816 155.237C569.211 154.763 569.844 154.568 570.403 154.845C571.027 155.154 571.287 155.926 570.967 156.571ZM564.652 161.477C565.446 161.174 566.152 160.559 566.589 159.678C567.036 158.774 567.097 157.84 566.848 157.047C566.619 156.211 566.037 155.547 565.284 155.174C564.51 154.791 563.63 154.729 562.848 155.065C562.065 155.347 561.38 155.972 560.933 156.875C560.496 157.757 560.413 158.68 560.653 159.495C560.881 160.278 561.463 160.941 562.237 161.325C562.99 161.698 563.87 161.759 564.652 161.477Z" fill="white"/>
<path d="M578.795 172.164C578.145 171.854 577.862 171.054 578.172 170.404L584.274 157.626C584.595 156.955 585.385 156.694 586.034 157.004C586.056 157.015 586.056 157.015 586.099 157.035C586.099 157.035 586.099 157.035 586.121 157.046L589.11 158.473C591.384 159.559 592.345 162.279 591.259 164.553C590.815 165.484 590.108 166.184 589.257 166.629C590.164 168.072 590.359 169.947 589.573 171.593C588.342 174.17 585.27 175.257 582.715 174.036L578.881 172.206C578.86 172.195 578.87 172.174 578.87 172.174C578.827 172.153 578.816 172.175 578.795 172.164ZM586.099 159.987L584.444 163.452L586.307 164.342C587.26 164.797 588.4 164.358 588.856 163.405C589.311 162.452 588.915 161.332 587.962 160.877L586.099 159.987ZM583.296 165.856L581.155 170.339L583.863 171.632C585.107 172.2 586.569 171.701 587.169 170.445C587.758 169.211 587.228 167.76 586.003 167.149L583.296 165.856Z" fill="white"/>
<path d="M596.516 180.433C593.543 179.029 592.375 175.499 593.725 172.527C595.119 169.576 598.578 168.163 601.561 169.545C604.392 170.857 605.656 174.008 604.468 177.029C604.458 177.051 604.438 177.094 604.418 177.138C604.397 177.181 604.347 177.29 604.305 177.324C603.997 177.816 603.379 177.953 602.769 177.67L595.844 174.461C595.721 175.013 595.698 175.69 595.919 176.242C596.134 176.976 596.823 177.772 597.555 178.19C598.309 178.619 599.336 178.857 600.072 178.695C600.751 178.428 601.614 178.907 601.736 179.387C601.877 179.823 601.792 180.577 601.08 180.802C599.559 181.288 598.062 181.15 596.516 180.433ZM600.602 171.614C598.711 170.843 597.181 171.748 596.593 172.56L602.756 175.415C602.941 174.444 602.426 172.644 600.602 171.614Z" fill="white"/>
<path d="M618.321 178.5L616.383 182.812L614.455 187.103C614.17 187.738 613.408 188.027 612.774 187.742C612.204 187.486 611.953 186.873 612.058 186.289C610.961 186.506 609.818 186.414 608.724 185.922C607.235 185.253 606.219 184.06 605.72 182.652C605.231 181.222 605.294 179.619 605.963 178.13C606.641 176.619 607.799 175.508 609.183 174.946C610.576 174.362 612.153 174.307 613.642 174.976C614.737 175.468 615.554 176.283 616.121 177.248C616.498 176.76 617.123 176.54 617.692 176.796C618.327 177.081 618.616 177.843 618.321 178.5ZM612.196 183.641C612.977 183.308 613.659 182.667 614.063 181.77C614.476 180.85 614.502 179.914 614.222 179.131C613.962 178.304 613.356 177.663 612.589 177.319C611.801 176.965 610.919 176.937 610.15 177.301C609.379 177.613 608.718 178.263 608.305 179.182C607.902 180.08 607.854 181.006 608.124 181.811C608.381 182.585 608.988 183.226 609.776 183.58C610.542 183.924 611.424 183.952 612.196 183.641Z" fill="white"/>
<path d="M630.785 190.071C629.697 192.581 626.687 193.735 624.154 192.638C621.643 191.551 620.47 188.584 621.558 186.073L623.837 180.81C624.105 180.193 624.872 179.872 625.51 180.148C626.171 180.435 626.439 181.205 626.172 181.821L623.892 187.085C623.348 188.34 623.91 189.76 625.165 190.304C626.442 190.857 627.885 190.305 628.451 189.059L630.731 183.796C630.998 183.179 631.721 182.839 632.381 183.125C632.998 183.392 633.332 184.191 633.065 184.807L630.785 190.071Z" fill="white"/>
<path d="M641.245 186.779C641.909 187.057 642.263 187.829 641.977 188.515C641.699 189.18 640.892 189.493 640.228 189.216L639.674 188.985L637.095 195.164C637.782 195.451 638.082 196.226 637.796 196.913C637.509 197.599 636.756 197.909 636.069 197.622C634.718 197.059 634.073 195.489 634.637 194.138L637.216 187.959L636.573 187.69C635.887 187.404 635.586 186.628 635.864 185.964C636.15 185.277 636.904 184.968 637.59 185.254L638.233 185.522L639.573 182.311C639.859 181.624 640.635 181.324 641.322 181.61C642.008 181.897 642.318 182.65 642.031 183.337L640.691 186.548L641.245 186.779Z" fill="white"/>
<path d="M655.707 192.636C656.352 192.897 656.701 193.634 656.431 194.301L654.305 199.551L653.026 202.71C651.819 205.691 648.515 207.072 645.556 205.874C644.756 205.55 644.023 204.994 643.49 204.39C642.975 203.871 643.032 203.091 643.551 202.576C644.057 202.159 644.912 202.221 645.329 202.726C645.671 203.098 646.048 203.38 646.493 203.56C647.815 204.069 649.269 203.674 650.094 202.662C649.327 202.766 648.498 202.637 647.764 202.34C645.206 201.304 643.97 198.344 645.006 195.786L647.132 190.536C647.402 189.869 648.166 189.582 648.766 189.825C649.456 190.105 649.738 190.814 649.468 191.482L647.342 196.732C646.82 198.022 647.469 199.424 648.737 199.937C650.005 200.451 651.424 199.886 651.947 198.596L654.073 193.346C654.343 192.679 655.039 192.365 655.707 192.636Z" fill="white"/>
<path d="M678.124 213.827C677.424 213.573 677.088 212.813 677.333 212.136L682.125 198.939C682.362 198.284 683.116 197.894 683.816 198.148C684.515 198.402 684.844 199.185 684.606 199.84L682.256 206.314L692.227 201.636C692.903 201.32 693.67 201.598 693.986 202.275C694.288 202.92 694.001 203.71 693.347 204.034L686.591 207.173L689.216 215.556C689.478 216.239 689.102 216.995 688.405 217.228C688.105 217.349 687.802 217.341 687.508 217.234C687.17 217.111 686.889 216.831 686.747 216.447L684.192 208.294L680.978 209.833L679.815 213.037C679.569 213.714 678.823 214.081 678.124 213.827Z" fill="white"/>
<path d="M698.529 220.931C696.96 220.4 695.865 219.295 695.204 217.88C694.565 216.549 694.451 214.939 694.99 213.348C695.514 211.802 696.559 210.661 697.906 209.901C699.29 209.179 700.832 208.966 702.401 209.497C703.901 210.005 705.042 211.126 705.612 212.51C706.265 213.948 706.379 215.481 705.856 217.027C705.317 218.618 704.272 219.835 702.91 220.489C701.616 221.242 700.029 221.439 698.529 220.931ZM699.087 212.1C698.356 212.536 697.784 213.255 697.468 214.187C697.137 215.164 697.163 216.06 697.47 216.873C697.854 217.611 698.504 218.161 699.368 218.454C700.163 218.723 700.991 218.674 701.744 218.321C702.528 217.877 703.115 217.189 703.446 216.211C703.762 215.279 703.721 214.353 703.36 213.547C702.961 212.854 702.357 212.244 701.562 211.975C700.698 211.682 699.824 211.792 699.087 212.1Z" fill="white"/>
<path d="M712.144 225.191C708.988 224.187 707.15 220.782 708.146 217.648C709.158 214.469 712.618 212.775 715.782 213.756C717.154 214.192 718.275 215.103 719.018 216.17C719.413 216.749 719.257 217.556 718.731 217.943C718.099 218.346 717.338 218.205 716.943 217.626C716.487 217.002 715.849 216.472 715.003 216.203C713.151 215.614 711.131 216.659 710.571 218.42C710.011 220.181 711.063 222.178 712.915 222.767C713.739 223.029 714.588 222.971 715.321 222.726C715.948 222.497 716.673 222.829 716.956 223.523C717.162 224.143 716.838 224.845 716.166 225.136C714.957 225.532 713.517 225.628 712.144 225.191Z" fill="white"/>
<path d="M725.956 222.269L724.414 227.469C724.202 228.183 723.463 228.564 722.75 228.353C722.175 228.182 721.814 227.625 721.81 227.048C721.815 226.949 721.826 226.827 721.86 226.712L725.886 213.136C726.098 212.423 726.837 212.042 727.527 212.246C728.24 212.458 728.652 213.181 728.44 213.894L727.253 217.898C728.105 217.725 729.015 217.694 729.913 217.961C732.697 218.786 734.253 221.726 733.434 224.487L731.892 229.687C731.68 230.401 730.964 230.789 730.251 230.578C729.538 230.366 729.149 229.65 729.361 228.937L730.903 223.737C731.306 222.379 730.529 220.947 729.155 220.515C727.791 220.135 726.382 220.919 725.956 222.269Z" fill="white"/>
<path d="M749.778 224.739L748.536 229.301L747.3 233.84C747.118 234.511 746.41 234.916 745.739 234.733C745.137 234.569 744.793 234.003 744.806 233.409C743.756 233.795 742.613 233.882 741.455 233.567C739.88 233.138 738.69 232.117 737.978 230.804C737.273 229.468 737.085 227.874 737.514 226.3C737.949 224.702 738.918 223.424 740.198 222.653C741.484 221.859 743.033 221.559 744.607 221.988C745.765 222.303 746.7 222.981 747.41 223.846C747.706 223.304 748.289 222.991 748.891 223.154C749.563 223.337 749.967 224.044 749.778 224.739ZM744.529 230.772C745.249 230.321 745.823 229.582 746.082 228.633C746.346 227.66 746.226 226.732 745.828 226.002C745.442 225.225 744.743 224.687 743.933 224.466C743.099 224.239 742.224 224.349 741.521 224.829C740.807 225.256 740.256 226.002 739.991 226.974C739.733 227.924 739.83 228.846 740.222 229.599C740.597 230.323 741.296 230.862 742.13 231.089C742.94 231.309 743.816 231.2 744.529 230.772Z" fill="white"/>
<path d="M760.679 238.29C759.978 238.124 759.532 237.402 759.698 236.701L762.961 222.922C763.132 222.198 763.849 221.776 764.549 221.942C764.573 221.947 764.573 221.947 764.619 221.958C764.619 221.958 764.619 221.958 764.643 221.964L767.866 222.727C770.318 223.307 771.833 225.763 771.252 228.215C771.015 229.219 770.472 230.052 769.734 230.667C770.926 231.886 771.513 233.678 771.092 235.453C770.434 238.232 767.661 239.943 764.906 239.291L760.772 238.312C760.749 238.306 760.754 238.283 760.754 238.283C760.707 238.272 760.702 238.295 760.679 238.29ZM765.243 224.844L764.359 228.58L766.367 229.056C767.395 229.299 768.417 228.629 768.66 227.601C768.903 226.573 768.279 225.562 767.252 225.319L765.243 224.844ZM763.745 231.173L762.6 236.007L765.519 236.698C766.856 236.99 768.179 236.193 768.5 234.839C768.815 233.508 767.99 232.202 766.664 231.864L763.745 231.173Z" fill="white"/>
<path d="M779.713 242.395C776.5 241.696 774.567 238.52 775.214 235.32C775.908 232.131 778.959 229.975 782.177 230.65C785.231 231.291 787.172 234.077 786.695 237.287C786.69 237.311 786.68 237.358 786.67 237.405C786.66 237.452 786.635 237.569 786.602 237.611C786.413 238.16 785.841 238.433 785.184 238.295L777.714 236.728C777.718 237.293 777.849 237.957 778.188 238.445C778.563 239.113 779.413 239.733 780.221 239.975C781.052 240.223 782.106 240.224 782.787 239.901C783.389 239.487 784.337 239.76 784.563 240.2C784.8 240.593 784.887 241.347 784.243 241.727C782.87 242.542 781.381 242.745 779.713 242.395ZM781.709 232.882C779.693 232.557 778.406 233.783 778.016 234.706L784.663 236.101C784.625 235.112 783.718 233.475 781.709 232.882Z" fill="white"/>
<path d="M802.467 235.672L801.623 240.324L800.782 244.952C800.658 245.637 799.988 246.1 799.303 245.976C798.689 245.865 798.299 245.33 798.26 244.738C797.247 245.212 796.115 245.397 794.935 245.183C793.329 244.891 792.056 243.977 791.233 242.73C790.415 241.459 790.091 239.888 790.382 238.282C790.678 236.653 791.535 235.296 792.743 234.418C793.956 233.516 795.473 233.084 797.079 233.376C798.26 233.59 799.249 234.185 800.031 234.985C800.28 234.421 800.833 234.058 801.447 234.169C802.132 234.294 802.596 234.963 802.467 235.672ZM797.757 242.134C798.435 241.623 798.944 240.837 799.12 239.869C799.3 238.877 799.1 237.963 798.64 237.269C798.189 236.529 797.447 236.053 796.62 235.903C795.77 235.748 794.907 235.933 794.248 236.472C793.574 236.959 793.089 237.749 792.909 238.741C792.733 239.709 792.91 240.619 793.365 241.336C793.801 242.025 794.543 242.502 795.394 242.656C796.22 242.806 797.083 242.621 797.757 242.134Z" fill="white"/>
<path d="M816.99 243.532C816.578 246.237 813.961 248.12 811.232 247.705C808.527 247.293 806.637 244.723 807.048 242.019L807.912 236.348C808.013 235.684 808.673 235.177 809.361 235.282C810.072 235.39 810.528 236.066 810.427 236.731L809.563 242.401C809.358 243.754 810.263 244.984 811.615 245.19C812.991 245.399 814.245 244.498 814.475 243.149L815.338 237.478C815.439 236.814 816.052 236.3 816.763 236.409C817.428 236.51 817.954 237.197 817.853 237.861L816.99 243.532Z" fill="white"/>
<path d="M825.646 237.412C826.361 237.5 826.909 238.149 826.817 238.887C826.729 239.602 826.036 240.12 825.321 240.032L824.726 239.958L823.901 246.603C824.64 246.694 825.138 247.361 825.046 248.099C824.954 248.837 824.312 249.338 823.574 249.247C822.121 249.066 821.077 247.728 821.258 246.275L822.082 239.63L821.391 239.544C820.653 239.453 820.155 238.786 820.244 238.072C820.335 237.333 820.978 236.833 821.716 236.924L822.407 237.01L822.835 233.556C822.927 232.818 823.593 232.32 824.331 232.412C825.07 232.503 825.571 233.146 825.479 233.884L825.051 237.338L825.646 237.412Z" fill="white"/>
<path d="M840.727 238.955C841.419 239.025 841.96 239.636 841.887 240.352L841.311 245.987L840.964 249.377C840.638 252.576 837.851 254.825 834.675 254.5C833.816 254.412 832.957 254.083 832.277 253.652C831.638 253.297 831.475 252.533 831.829 251.893C832.198 251.352 833.037 251.172 833.578 251.541C834.01 251.803 834.451 251.968 834.929 252.017C836.34 252.137 837.626 251.352 838.135 250.149C837.428 250.463 836.596 250.571 835.809 250.491C833.063 250.21 831.05 247.712 831.331 244.967L831.907 239.332C831.98 238.616 832.633 238.128 833.277 238.194C834.018 238.269 834.487 238.872 834.414 239.588L833.838 245.223C833.696 246.608 834.711 247.773 836.072 247.912C837.433 248.051 838.639 247.113 838.78 245.728L839.356 240.093C839.429 239.377 840.01 238.882 840.727 238.955Z" fill="white"/>
<path d="M869.995 252.005C869.251 252 868.679 251.397 868.683 250.677L868.768 236.637C868.772 235.941 869.352 235.321 870.096 235.325C870.84 235.33 871.412 235.957 871.408 236.653L871.366 243.541L879.189 235.788C879.721 235.263 880.537 235.268 881.061 235.799C881.562 236.306 881.557 237.146 881.05 237.671L875.738 242.895L881.024 249.911C881.501 250.466 881.4 251.306 880.821 251.758C880.58 251.973 880.291 252.067 879.979 252.065C879.619 252.063 879.26 251.893 878.998 251.579L873.855 244.756L871.344 247.285L871.323 250.693C871.319 251.413 870.739 252.009 869.995 252.005Z" fill="white"/>
<path d="M893.625 251.447C891.97 251.512 890.552 250.871 889.428 249.786C888.356 248.771 887.674 247.309 887.608 245.63C887.544 244 888.113 242.56 889.099 241.369C890.134 240.199 891.497 239.449 893.152 239.385C894.735 239.323 896.201 239.962 897.228 241.05C898.353 242.159 899.008 243.551 899.072 245.181C899.137 246.86 898.596 248.37 897.558 249.468C896.619 250.633 895.207 251.385 893.625 251.447ZM890.988 243C890.462 243.669 890.184 244.545 890.222 245.528C890.263 246.559 890.607 247.386 891.185 248.036C891.807 248.588 892.611 248.869 893.522 248.833C894.362 248.8 895.117 248.459 895.694 247.86C896.267 247.165 896.57 246.312 896.53 245.281C896.491 244.298 896.121 243.447 895.497 242.823C894.876 242.319 894.094 241.966 893.255 241.999C892.343 242.034 891.567 242.449 890.988 243Z" fill="white"/>
<path d="M910.12 250.248C906.816 250.481 903.85 247.995 903.619 244.715C903.384 241.387 905.974 238.534 909.276 238.277C910.713 238.176 912.091 238.608 913.176 239.326C913.757 239.718 913.91 240.525 913.564 241.079C913.126 241.687 912.366 241.837 911.785 241.445C911.131 241.034 910.343 240.777 909.457 240.839C907.518 240.976 906.027 242.693 906.157 244.536C906.287 246.38 908.002 247.847 909.941 247.71C910.803 247.649 911.571 247.282 912.162 246.784C912.66 246.339 913.456 246.38 913.976 246.92C914.396 247.42 914.354 248.193 913.837 248.711C912.86 249.525 911.557 250.146 910.12 250.248Z" fill="white"/>
<path d="M922.223 242.315L922.743 247.714C922.814 248.454 922.272 249.085 921.532 249.156C920.935 249.214 920.392 248.832 920.171 248.299C920.138 248.206 920.103 248.089 920.091 247.969L918.734 233.874C918.663 233.134 919.205 232.503 919.922 232.434C920.662 232.363 921.315 232.878 921.386 233.619L921.786 237.776C922.511 237.296 923.344 236.926 924.276 236.837C927.166 236.558 929.711 238.7 929.987 241.567L930.507 246.966C930.579 247.707 930.06 248.335 929.32 248.406C928.579 248.478 927.951 247.96 927.879 247.219L927.359 241.82C927.224 240.411 925.967 239.374 924.531 239.488C923.124 239.648 922.111 240.903 922.223 242.315Z" fill="white"/>
<path d="M944.088 235.77L944.651 240.464L945.211 245.135C945.294 245.826 944.79 246.466 944.099 246.549C943.48 246.623 942.949 246.228 942.737 245.673C941.909 246.425 940.882 246.935 939.691 247.078C938.071 247.272 936.585 246.773 935.431 245.824C934.275 244.851 933.502 243.445 933.308 241.824C933.111 240.18 933.529 238.631 934.426 237.436C935.319 236.217 936.642 235.357 938.262 235.163C939.454 235.02 940.575 235.297 941.557 235.831C941.629 235.219 942.051 234.709 942.671 234.634C943.362 234.551 944.002 235.055 944.088 235.77ZM941.49 243.333C941.988 242.645 942.242 241.744 942.125 240.767C942.005 239.766 941.545 238.951 940.901 238.424C940.252 237.849 939.402 237.613 938.568 237.713C937.71 237.816 936.94 238.246 936.469 238.955C935.969 239.62 935.738 240.518 935.858 241.518C935.975 242.495 936.411 243.313 937.058 243.864C937.677 244.394 938.527 244.631 939.385 244.528C940.219 244.428 940.989 243.997 941.49 243.333Z" fill="white"/>
<path d="M959.581 244.235C958.869 244.342 958.186 243.838 958.08 243.126L955.981 229.122C955.87 228.386 956.378 227.728 957.09 227.621C957.114 227.617 957.114 227.617 957.161 227.61C957.161 227.61 957.161 227.61 957.185 227.607L960.461 227.116C962.953 226.742 965.273 228.457 965.646 230.949C965.799 231.97 965.606 232.945 965.15 233.79C966.709 234.479 967.921 235.923 968.191 237.727C968.614 240.551 966.677 243.172 963.877 243.591L959.676 244.221C959.652 244.225 959.648 244.201 959.648 244.201C959.601 244.208 959.604 244.232 959.581 244.235ZM958.814 230.056L959.384 233.854L961.425 233.548C962.469 233.391 963.168 232.389 963.012 231.344C962.855 230.3 961.9 229.594 960.856 229.75L958.814 230.056ZM959.778 236.488L960.515 241.402L963.482 240.957C964.831 240.73 965.763 239.499 965.556 238.122C965.354 236.769 964.102 235.865 962.745 236.044L959.778 236.488Z" fill="white"/>
<path d="M976.451 241.468C973.204 241.987 970.247 239.733 969.684 236.517C969.169 233.294 971.226 230.176 974.468 229.632C977.546 229.117 980.368 231.005 981.093 234.168C981.097 234.192 981.105 234.239 981.113 234.287C981.121 234.334 981.14 234.452 981.125 234.504C981.149 235.084 980.715 235.546 980.052 235.657L972.525 236.918C972.735 237.442 973.098 238.014 973.592 238.345C974.184 238.83 975.202 239.097 976.042 239.029C976.906 238.958 977.889 238.574 978.405 238.025C978.815 237.421 979.797 237.33 980.168 237.657C980.532 237.937 980.887 238.607 980.426 239.196C979.445 240.455 978.131 241.186 976.451 241.468ZM974.845 231.881C972.849 232.313 972.097 233.923 972.07 234.925L978.769 233.803C978.373 232.896 976.932 231.702 974.845 231.881Z" fill="white"/>
<path d="M996.847 226.824L997.71 231.472L998.57 236.097C998.697 236.781 998.236 237.453 997.551 237.58C996.938 237.694 996.383 237.333 996.136 236.793C995.357 237.597 994.366 238.172 993.186 238.391C991.581 238.689 990.066 238.287 988.855 237.414C987.638 236.517 986.777 235.163 986.479 233.559C986.176 231.931 986.494 230.358 987.312 229.108C988.125 227.834 989.39 226.891 990.994 226.593C992.174 226.374 993.31 226.577 994.325 227.048C994.357 226.432 994.746 225.896 995.359 225.782C996.044 225.655 996.715 226.116 996.847 226.824ZM994.74 234.538C995.193 233.819 995.389 232.904 995.209 231.937C995.025 230.946 994.513 230.162 993.837 229.677C993.153 229.145 992.289 228.964 991.463 229.118C990.614 229.275 989.873 229.755 989.448 230.493C988.992 231.188 988.819 232.099 989.003 233.09C989.183 234.057 989.671 234.845 990.352 235.354C991.004 235.843 991.867 236.024 992.717 235.866C993.543 235.713 994.284 235.233 994.74 234.538Z" fill="white"/>
<path d="M1012.28 229.469C1012.82 232.152 1011.01 234.818 1008.3 235.362C1005.62 235.902 1002.97 234.135 1002.43 231.453L1001.29 225.829C1001.16 225.171 1001.61 224.469 1002.29 224.331C1003 224.189 1003.66 224.669 1003.79 225.328L1004.92 230.951C1005.19 232.292 1006.46 233.138 1007.8 232.868C1009.17 232.594 1010.04 231.317 1009.79 229.971L1008.66 224.348C1008.53 223.689 1008.93 222.997 1009.63 222.855C1010.29 222.722 1011.02 223.187 1011.15 223.846L1012.28 229.469Z" fill="white"/>
<path d="M1020.35 220.499C1021.05 220.347 1021.79 220.779 1021.94 221.506C1022.1 222.21 1021.61 222.928 1020.91 223.08L1020.32 223.206L1021.73 229.752C1022.46 229.595 1023.15 230.06 1023.31 230.787C1023.46 231.515 1023.02 232.199 1022.29 232.356C1020.86 232.665 1019.44 231.745 1019.13 230.313L1017.72 223.768L1017.04 223.915C1016.31 224.072 1015.62 223.607 1015.47 222.903C1015.31 222.175 1015.75 221.491 1016.48 221.334L1017.16 221.187L1016.43 217.786C1016.27 217.058 1016.73 216.369 1017.46 216.212C1018.19 216.055 1018.87 216.497 1019.03 217.224L1019.76 220.626L1020.35 220.499Z" fill="white"/>
<path d="M1034.47 217.313C1035.15 217.16 1035.86 217.567 1036.02 218.269L1037.26 223.795L1038.01 227.12C1038.71 230.258 1036.78 233.274 1033.67 233.975C1032.83 234.165 1031.91 234.125 1031.13 233.932C1030.41 233.799 1030.01 233.125 1030.14 232.407C1030.32 231.776 1031.06 231.339 1031.69 231.517C1032.18 231.628 1032.65 231.645 1033.12 231.54C1034.5 231.206 1035.47 230.053 1035.57 228.751C1035 229.273 1034.24 229.639 1033.47 229.813C1030.78 230.419 1028.08 228.689 1027.47 225.997L1026.23 220.471C1026.07 219.768 1026.54 219.098 1027.17 218.956C1027.89 218.793 1028.53 219.215 1028.69 219.918L1029.93 225.444C1030.24 226.802 1031.57 227.584 1032.9 227.284C1034.24 226.984 1035.08 225.711 1034.78 224.353L1033.53 218.827C1033.38 218.125 1033.77 217.471 1034.47 217.313Z" fill="white"/>
<path d="M1072.99 220.072C1072.27 220.26 1071.56 219.824 1071.38 219.127L1067.84 205.54C1067.67 204.866 1068.07 204.117 1068.79 203.93C1069.51 203.742 1070.22 204.201 1070.4 204.875L1072.13 211.541L1077.69 202.034C1078.07 201.39 1078.86 201.185 1079.51 201.563C1080.12 201.924 1080.33 202.737 1079.98 203.375L1076.19 209.791L1083.1 215.208C1083.71 215.622 1083.83 216.459 1083.38 217.045C1083.21 217.314 1082.95 217.48 1082.65 217.558C1082.3 217.649 1081.91 217.577 1081.58 217.342L1074.85 212.074L1073.07 215.164L1073.93 218.463C1074.11 219.159 1073.71 219.885 1072.99 220.072Z" fill="white"/>
<path d="M1093.61 214.596C1092.01 215.032 1090.48 214.728 1089.14 213.924C1087.87 213.177 1086.88 211.906 1086.43 210.285C1086 208.711 1086.23 207.181 1086.92 205.797C1087.67 204.425 1088.83 203.387 1090.43 202.951C1091.95 202.533 1093.53 202.825 1094.77 203.654C1096.12 204.481 1097.07 205.689 1097.5 207.264C1097.94 208.884 1097.76 210.478 1096.99 211.781C1096.34 213.128 1095.13 214.179 1093.61 214.596ZM1089.13 206.961C1088.77 207.731 1088.7 208.647 1088.96 209.596C1089.23 210.592 1089.75 211.32 1090.46 211.823C1091.19 212.22 1092.04 212.313 1092.92 212.073C1093.73 211.851 1094.39 211.348 1094.81 210.634C1095.21 209.828 1095.32 208.929 1095.05 207.934C1094.79 206.984 1094.23 206.239 1093.48 205.772C1092.77 205.421 1091.92 205.253 1091.11 205.474C1090.23 205.714 1089.57 206.293 1089.13 206.961Z" fill="white"/>
<path d="M1110.87 209.64C1107.69 210.546 1104.28 208.721 1103.38 205.558C1102.47 202.349 1104.42 199.025 1107.6 198.097C1108.98 197.704 1110.42 197.844 1111.63 198.324C1112.28 198.589 1112.59 199.348 1112.37 199.96C1112.06 200.646 1111.35 200.948 1110.7 200.683C1109.98 200.415 1109.15 200.325 1108.3 200.567C1106.43 201.099 1105.32 203.085 1105.82 204.863C1106.33 206.64 1108.31 207.725 1110.18 207.193C1111.01 206.957 1111.69 206.441 1112.16 205.831C1112.56 205.295 1113.35 205.171 1113.97 205.593C1114.48 205.996 1114.6 206.761 1114.2 207.374C1113.41 208.372 1112.26 209.247 1110.87 209.64Z" fill="white"/>
<path d="M1117.82 200.579L1119.34 205.785C1119.55 206.5 1119.13 207.221 1118.42 207.43C1117.84 207.598 1117.24 207.325 1116.92 206.842C1116.87 206.757 1116.81 206.648 1116.78 206.533L1112.81 192.942C1112.6 192.228 1113.01 191.507 1113.7 191.305C1114.42 191.096 1115.16 191.48 1115.36 192.195L1116.54 196.203C1117.16 195.596 1117.91 195.077 1118.81 194.814C1121.59 193.999 1124.49 195.626 1125.3 198.39L1126.82 203.596C1127.03 204.311 1126.64 205.025 1125.93 205.234C1125.21 205.443 1124.5 205.051 1124.29 204.337L1122.77 199.131C1122.37 197.772 1120.94 196.99 1119.55 197.371C1118.2 197.791 1117.44 199.214 1117.82 200.579Z" fill="white"/>
<path d="M1141.22 189.405L1142.59 193.931L1143.95 198.433C1144.15 199.099 1143.77 199.817 1143.1 200.019C1142.51 200.2 1141.91 199.902 1141.61 199.393C1140.92 200.277 1140 200.958 1138.85 201.305C1137.29 201.778 1135.74 201.545 1134.44 200.811C1133.13 200.053 1132.13 198.803 1131.66 197.241C1131.18 195.656 1131.32 194.058 1131.99 192.725C1132.66 191.369 1133.81 190.293 1135.38 189.82C1136.53 189.472 1137.68 189.55 1138.74 189.906C1138.7 189.29 1139.03 188.714 1139.63 188.534C1140.29 188.332 1141.01 188.716 1141.22 189.405ZM1139.97 197.305C1140.35 196.541 1140.44 195.61 1140.15 194.668C1139.86 193.703 1139.27 192.98 1138.54 192.573C1137.8 192.12 1136.92 192.035 1136.12 192.278C1135.29 192.528 1134.61 193.086 1134.27 193.866C1133.89 194.608 1133.82 195.532 1134.11 196.497C1134.4 197.438 1134.97 198.168 1135.7 198.598C1136.4 199.013 1137.28 199.098 1138.11 198.847C1138.91 198.604 1139.6 198.046 1139.97 197.305Z" fill="white"/>
<path d="M1155.6 196.076C1154.91 196.292 1154.16 195.9 1153.95 195.213L1149.69 181.707C1149.47 180.997 1149.87 180.268 1150.56 180.051C1150.58 180.044 1150.58 180.044 1150.62 180.03C1150.62 180.03 1150.62 180.03 1150.65 180.022L1153.81 179.028C1156.21 178.271 1158.77 179.604 1159.53 182.008C1159.84 182.992 1159.8 183.986 1159.48 184.891C1161.12 185.329 1162.55 186.567 1163.09 188.307C1163.95 191.031 1162.45 193.92 1159.74 194.771L1155.69 196.047C1155.67 196.054 1155.66 196.031 1155.66 196.031C1155.62 196.046 1155.62 196.068 1155.6 196.076ZM1152.64 182.189L1153.79 185.851L1155.76 185.231C1156.77 184.914 1157.3 183.815 1156.98 182.808C1156.67 181.801 1155.61 181.252 1154.61 181.569L1152.64 182.189ZM1154.59 188.392L1156.08 193.131L1158.94 192.23C1160.24 191.796 1160.97 190.435 1160.55 189.107C1160.14 187.802 1158.76 187.103 1157.45 187.491L1154.59 188.392Z" fill="white"/>
<path d="M1173.02 190.476C1169.88 191.465 1166.63 189.668 1165.6 186.569C1164.62 183.456 1166.2 180.07 1169.33 179.058C1172.3 178.098 1175.36 179.553 1176.54 182.576C1176.55 182.599 1176.57 182.645 1176.58 182.691C1176.6 182.736 1176.63 182.85 1176.63 182.903C1176.73 183.474 1176.37 183.994 1175.73 184.201L1168.47 186.549C1168.76 187.038 1169.2 187.55 1169.74 187.806C1170.39 188.198 1171.44 188.314 1172.26 188.124C1173.1 187.927 1174.02 187.404 1174.45 186.785C1174.77 186.128 1175.73 185.893 1176.14 186.163C1176.54 186.386 1176.99 186.998 1176.62 187.647C1175.83 189.037 1174.64 189.952 1173.02 190.476ZM1170.03 181.228C1168.12 181.947 1167.61 183.65 1167.73 184.645L1174.19 182.555C1173.67 181.716 1172.07 180.745 1170.03 181.228Z" fill="white"/>
<path d="M1188.82 173.967L1190.3 178.455L1191.79 182.919C1192 183.58 1191.64 184.308 1190.98 184.527C1190.39 184.724 1189.79 184.442 1189.47 183.941C1188.81 184.843 1187.9 185.547 1186.76 185.925C1185.22 186.439 1183.66 186.247 1182.34 185.547C1181.01 184.824 1179.98 183.601 1179.46 182.052C1178.94 180.48 1179.04 178.879 1179.68 177.529C1180.31 176.156 1181.44 175.049 1182.99 174.535C1184.13 174.158 1185.28 174.205 1186.35 174.533C1186.3 173.918 1186.61 173.334 1187.2 173.137C1187.86 172.918 1188.59 173.284 1188.82 173.967ZM1187.78 181.897C1188.13 181.123 1188.2 180.19 1187.89 179.256C1187.57 178.299 1186.96 177.592 1186.22 177.204C1185.47 176.77 1184.59 176.708 1183.79 176.973C1182.97 177.245 1182.31 177.821 1181.99 178.61C1181.63 179.36 1181.58 180.286 1181.9 181.243C1182.21 182.177 1182.8 182.891 1183.54 183.302C1184.26 183.698 1185.14 183.76 1185.96 183.488C1186.75 183.223 1187.42 182.647 1187.78 181.897Z" fill="white"/>
<path d="M1204.77 174.547C1205.65 177.137 1204.2 180.015 1201.58 180.903C1198.99 181.783 1196.13 180.373 1195.25 177.783L1193.4 172.352C1193.19 171.716 1193.54 170.962 1194.2 170.738C1194.88 170.507 1195.6 170.897 1195.81 171.533L1197.66 176.964C1198.1 178.259 1199.47 178.934 1200.76 178.494C1202.08 178.046 1202.78 176.668 1202.36 175.366L1200.52 169.935C1200.3 169.298 1200.61 168.56 1201.29 168.329C1201.93 168.112 1202.71 168.48 1202.93 169.116L1204.77 174.547Z" fill="white"/>
<path d="M1211.52 164.753C1212.2 164.517 1212.98 164.856 1213.22 165.558C1213.46 166.238 1213.06 167.01 1212.38 167.247L1211.82 167.444L1214.02 173.768C1214.72 173.524 1215.46 173.901 1215.71 174.604C1215.95 175.307 1215.6 176.04 1214.89 176.284C1213.51 176.765 1211.98 176.026 1211.5 174.643L1209.3 168.319L1208.64 168.548C1207.94 168.792 1207.2 168.415 1206.96 167.735C1206.72 167.032 1207.07 166.299 1207.78 166.054L1208.43 165.826L1207.29 162.539C1207.05 161.836 1207.42 161.095 1208.13 160.85C1208.83 160.606 1209.56 160.961 1209.81 161.663L1210.95 164.95L1211.52 164.753Z" fill="white"/>
<path d="M1223.69 160.456C1224.34 160.225 1225.09 160.546 1225.33 161.225L1227.22 166.566L1228.35 169.78C1229.42 172.813 1227.86 176.036 1224.85 177.098C1224.04 177.385 1223.12 177.454 1222.32 177.354C1221.59 177.306 1221.12 176.684 1221.16 175.955C1221.27 175.308 1221.95 174.787 1222.6 174.89C1223.1 174.942 1223.57 174.903 1224.02 174.744C1225.35 174.25 1226.18 172.991 1226.12 171.686C1225.62 172.272 1224.91 172.724 1224.16 172.988C1221.56 173.906 1218.68 172.506 1217.76 169.903L1215.87 164.562C1215.63 163.883 1216.02 163.163 1216.63 162.947C1217.33 162.7 1218.01 163.045 1218.25 163.724L1220.13 169.065C1220.6 170.378 1222.01 170.999 1223.3 170.543C1224.59 170.088 1225.28 168.725 1224.82 167.413L1222.93 162.071C1222.69 161.392 1223.01 160.696 1223.69 160.456Z" fill="white"/>
<path d="M1255.03 161.787C1254.33 162.045 1253.58 161.682 1253.33 161.007L1248.46 147.839C1248.22 147.186 1248.54 146.401 1249.24 146.143C1249.94 145.885 1250.69 146.27 1250.94 146.923L1253.33 153.383L1257.91 143.369C1258.22 142.691 1258.99 142.408 1259.67 142.72C1260.32 143.017 1260.61 143.805 1260.32 144.475L1257.19 151.237L1264.61 155.938C1265.25 156.289 1265.45 157.11 1265.07 157.738C1264.92 158.024 1264.68 158.214 1264.39 158.322C1264.05 158.447 1263.66 158.414 1263.3 158.213L1256.08 153.642L1254.63 156.894L1255.81 160.091C1256.06 160.766 1255.73 161.528 1255.03 161.787Z" fill="white"/>
<path d="M1273.23 155.014C1271.68 155.6 1270.14 155.442 1268.73 154.769C1267.39 154.147 1266.28 152.976 1265.68 151.405C1265.1 149.878 1265.19 148.333 1265.74 146.89C1266.36 145.453 1267.41 144.309 1268.96 143.723C1270.44 143.163 1272.03 143.304 1273.35 144.011C1274.77 144.706 1275.83 145.818 1276.41 147.344C1277.01 148.915 1276.97 150.519 1276.34 151.889C1275.81 153.293 1274.71 154.453 1273.23 155.014ZM1268.05 147.838C1267.77 148.64 1267.78 149.558 1268.13 150.479C1268.49 151.444 1269.08 152.119 1269.84 152.552C1270.6 152.878 1271.45 152.89 1272.31 152.567C1273.09 152.27 1273.7 151.706 1274.06 150.955C1274.38 150.114 1274.4 149.21 1274.03 148.245C1273.68 147.324 1273.06 146.635 1272.27 146.241C1271.53 145.96 1270.67 145.873 1269.89 146.17C1269.03 146.493 1268.43 147.132 1268.05 147.838Z" fill="white"/>
<path d="M1287.61 149.4C1284.52 150.593 1280.96 149.087 1279.77 146.02C1278.57 142.907 1280.21 139.42 1283.29 138.205C1284.64 137.687 1286.08 137.695 1287.33 138.063C1288 138.267 1288.38 138.994 1288.21 139.625C1287.97 140.335 1287.29 140.701 1286.62 140.497C1285.87 140.296 1285.04 140.281 1284.22 140.601C1282.4 141.301 1281.48 143.38 1282.15 145.104C1282.81 146.828 1284.88 147.727 1286.7 147.027C1287.5 146.716 1288.13 146.14 1288.55 145.49C1288.89 144.919 1289.67 144.723 1290.32 145.088C1290.87 145.442 1291.06 146.193 1290.71 146.84C1290.02 147.906 1288.96 148.882 1287.61 149.4Z" fill="white"/>
<path d="M1297.72 138.189L1299.7 143.237C1299.98 143.929 1299.63 144.685 1298.94 144.957C1298.38 145.177 1297.75 144.959 1297.39 144.507C1297.34 144.426 1297.27 144.323 1297.23 144.212L1292.04 131.034C1291.77 130.342 1292.12 129.586 1292.79 129.322C1293.48 129.05 1294.25 129.367 1294.52 130.059L1296.05 133.945C1296.62 133.285 1297.31 132.7 1298.19 132.358C1300.89 131.295 1303.92 132.654 1304.98 135.334L1306.96 140.382C1307.24 141.074 1306.91 141.821 1306.22 142.094C1305.53 142.366 1304.78 142.041 1304.51 141.348L1302.52 136.301C1302 134.983 1300.51 134.332 1299.16 134.837C1297.85 135.378 1297.22 136.862 1297.72 138.189Z" fill="white"/>
<path d="M1317.07 126.191L1318.83 130.58L1320.58 134.946C1320.84 135.592 1320.52 136.341 1319.87 136.6C1319.3 136.832 1318.68 136.587 1318.33 136.106C1317.73 137.047 1316.87 137.805 1315.75 138.251C1314.24 138.858 1312.67 138.761 1311.31 138.142C1309.95 137.501 1308.84 136.343 1308.23 134.828C1307.61 133.291 1307.62 131.686 1308.17 130.3C1308.72 128.891 1309.78 127.719 1311.29 127.112C1312.4 126.666 1313.56 126.643 1314.65 126.905C1314.56 126.295 1314.83 125.693 1315.41 125.461C1316.06 125.202 1316.81 125.522 1317.07 126.191ZM1316.52 134.168C1316.82 133.375 1316.84 132.439 1316.47 131.526C1316.1 130.59 1315.44 129.922 1314.68 129.579C1313.91 129.192 1313.03 129.183 1312.25 129.496C1311.44 129.817 1310.81 130.432 1310.54 131.239C1310.23 132.01 1310.24 132.937 1310.61 133.873C1310.98 134.786 1311.61 135.463 1312.38 135.829C1313.11 136.18 1314 136.189 1314.8 135.867C1315.58 135.555 1316.21 134.94 1316.52 134.168Z" fill="white"/>
<path d="M1332.01 131.614C1331.35 131.888 1330.56 131.561 1330.29 130.895L1324.91 117.797C1324.63 117.108 1324.96 116.348 1325.63 116.074C1325.65 116.065 1325.65 116.065 1325.7 116.047C1325.7 116.047 1325.7 116.047 1325.72 116.038L1328.78 114.779C1331.11 113.822 1333.77 114.934 1334.73 117.265C1335.12 118.219 1335.17 119.213 1334.93 120.142C1336.61 120.439 1338.13 121.552 1338.82 123.239C1339.91 125.881 1338.65 128.888 1336.03 129.964L1332.1 131.578C1332.08 131.587 1332.07 131.565 1332.07 131.565C1332.02 131.583 1332.03 131.605 1332.01 131.614ZM1327.88 118.028L1329.34 121.58L1331.25 120.796C1332.23 120.394 1332.67 119.254 1332.27 118.277C1331.87 117.3 1330.77 116.842 1329.79 117.243L1327.88 118.028ZM1330.36 124.044L1332.24 128.639L1335.02 127.5C1336.27 126.958 1336.89 125.539 1336.36 124.252C1335.84 122.986 1334.4 122.407 1333.13 122.904L1330.36 124.044Z" fill="white"/>
<path d="M1348.55 124.73C1345.51 125.977 1342.12 124.456 1340.83 121.454C1339.6 118.433 1340.89 114.927 1343.92 113.659C1346.8 112.456 1349.98 113.65 1351.41 116.565C1351.42 116.587 1351.43 116.631 1351.45 116.676C1351.47 116.72 1351.52 116.831 1351.51 116.884C1351.67 117.443 1351.35 117.992 1350.73 118.251L1343.69 121.195C1344.02 121.658 1344.5 122.132 1345.06 122.342C1345.74 122.679 1346.8 122.707 1347.6 122.45C1348.42 122.183 1349.29 121.585 1349.67 120.933C1349.93 120.252 1350.87 119.939 1351.3 120.172C1351.72 120.362 1352.22 120.934 1351.9 121.612C1351.24 123.062 1350.12 124.073 1348.55 124.73ZM1344.8 115.763C1342.96 116.638 1342.59 118.378 1342.79 119.36L1349.06 116.74C1348.47 115.946 1346.79 115.112 1344.8 115.763Z" fill="white"/>
<path d="M1365.52 105.877L1367.37 110.226L1369.22 114.553C1369.49 115.193 1369.19 115.949 1368.55 116.222C1367.97 116.467 1367.35 116.236 1366.99 115.762C1366.41 116.716 1365.57 117.493 1364.46 117.964C1362.96 118.604 1361.39 118.541 1360.02 117.953C1358.64 117.342 1357.5 116.209 1356.86 114.707C1356.21 113.184 1356.18 111.58 1356.71 110.182C1357.22 108.762 1358.25 107.566 1359.75 106.926C1360.86 106.455 1362.01 106.406 1363.1 106.645C1363 106.036 1363.26 105.429 1363.84 105.184C1364.48 104.911 1365.23 105.215 1365.52 105.877ZM1365.14 113.865C1365.43 113.065 1365.42 112.129 1365.03 111.224C1364.64 110.297 1363.97 109.643 1363.2 109.317C1362.42 108.947 1361.53 108.958 1360.76 109.288C1359.97 109.627 1359.35 110.256 1359.09 111.068C1358.8 111.846 1358.83 112.773 1359.23 113.7C1359.61 114.605 1360.26 115.268 1361.03 115.616C1361.78 115.952 1362.66 115.94 1363.45 115.602C1364.23 115.272 1364.85 114.643 1365.14 113.865Z" fill="white"/>
<path d="M1380.5 105.569C1381.59 108.079 1380.37 111.065 1377.84 112.164C1375.33 113.253 1372.36 112.082 1371.27 109.572L1368.99 104.31C1368.72 103.694 1369.01 102.914 1369.65 102.637C1370.31 102.35 1371.06 102.681 1371.32 103.298L1373.61 108.559C1374.15 109.814 1375.57 110.375 1376.83 109.831C1378.1 109.276 1378.69 107.846 1378.16 106.582L1375.88 101.32C1375.61 100.703 1375.86 99.9427 1376.52 99.6561C1377.14 99.3886 1377.95 99.6905 1378.21 100.307L1380.5 105.569Z" fill="white"/>
<path d="M1385.16 95.8207C1385.82 95.5298 1386.62 95.8047 1386.92 96.4853C1387.21 97.1439 1386.88 97.9449 1386.23 98.2357L1385.68 98.4781L1388.38 104.603C1389.06 104.303 1389.83 104.619 1390.13 105.3C1390.43 105.98 1390.14 106.74 1389.46 107.04C1388.12 107.632 1386.54 107.019 1385.95 105.68L1383.24 99.5542L1382.6 99.8354C1381.92 100.136 1381.15 99.8197 1380.86 99.1611C1380.56 98.4805 1380.86 97.7209 1381.54 97.4203L1382.17 97.1392L1380.77 93.9557C1380.47 93.2751 1380.78 92.5059 1381.46 92.2053C1382.14 91.9048 1382.9 92.199 1383.21 92.8796L1384.61 96.0631L1385.16 95.8207Z" fill="white"/>
<path d="M1399.12 89.5745C1399.76 89.2903 1400.53 89.5492 1400.83 90.2064L1403.14 95.3766L1404.53 98.4875C1405.84 101.423 1404.55 104.762 1401.64 106.066C1400.85 106.419 1399.94 106.562 1399.14 106.528C1398.41 106.539 1397.88 105.958 1397.87 105.227C1397.92 104.574 1398.56 104 1399.21 104.049C1399.72 104.06 1400.18 103.983 1400.62 103.787C1401.9 103.187 1402.62 101.865 1402.47 100.569C1402.01 101.194 1401.34 101.702 1400.62 102.026C1398.1 103.153 1395.11 101.993 1393.98 99.4733L1391.67 94.3031C1391.38 93.6459 1391.7 92.897 1392.29 92.6324C1392.97 92.3285 1393.68 92.6168 1393.97 93.274L1396.28 98.4442C1396.85 99.7149 1398.31 100.218 1399.56 99.6595C1400.81 99.1009 1401.39 97.6861 1400.82 96.4155L1398.5 91.2453C1398.21 90.588 1398.47 89.8686 1399.12 89.5745Z" fill="white"/>
<path d="M1429.02 89.0017C1428.34 89.3161 1427.57 89.0158 1427.26 88.3632L1421.33 75.6385C1421.04 75.0077 1421.29 74.1988 1421.97 73.8844C1422.64 73.5699 1423.43 73.8921 1423.72 74.5229L1426.63 80.7656L1430.38 70.4102C1430.64 69.7085 1431.38 69.3636 1432.08 69.619C1432.75 69.8628 1433.11 70.6241 1432.87 71.3157L1430.31 78.3106L1438.09 82.3887C1438.76 82.6861 1439.02 83.488 1438.69 84.1447C1438.57 84.4419 1438.35 84.6506 1438.07 84.7825C1437.74 84.9346 1437.34 84.9345 1436.97 84.7633L1429.4 80.7983L1428.21 84.1588L1429.66 87.2475C1429.96 87.9001 1429.69 88.6873 1429.02 89.0017Z" fill="white"/>
<path d="M1449.66 79.2821C1448.16 79.996 1446.61 79.9681 1445.15 79.4159C1443.76 78.908 1442.56 77.8343 1441.83 76.3185C1441.13 74.8459 1441.08 73.2993 1441.51 71.8149C1442 70.3315 1442.96 69.1034 1444.45 68.3895C1445.88 67.7066 1447.48 67.7138 1448.86 68.3074C1450.33 68.8812 1451.48 69.9002 1452.18 71.3728C1452.91 72.8887 1453.01 74.4899 1452.49 75.9084C1452.09 77.3504 1451.09 78.5992 1449.66 79.2821ZM1443.89 72.5661C1443.68 73.3887 1443.77 74.3028 1444.19 75.1907C1444.64 76.1219 1445.28 76.7453 1446.07 77.1137C1446.86 77.3747 1447.71 77.3148 1448.53 76.9216C1449.29 76.5595 1449.85 75.9469 1450.14 75.1685C1450.39 74.3035 1450.33 73.4007 1449.89 72.4695C1449.46 71.5817 1448.79 70.9469 1447.97 70.6209C1447.2 70.4032 1446.34 70.3878 1445.58 70.7499C1444.76 71.1431 1444.21 71.831 1443.89 72.5661Z" fill="white"/>
<path d="M1463.45 72.4775C1460.48 73.929 1456.8 72.7331 1455.35 69.7777C1453.89 66.7792 1455.23 63.1645 1458.19 61.6914C1459.49 61.0603 1460.93 60.9458 1462.2 61.2054C1462.89 61.3518 1463.33 62.0432 1463.22 62.686C1463.04 63.4141 1462.39 63.837 1461.71 63.6907C1460.94 63.5543 1460.12 63.6104 1459.32 63.9996C1457.57 64.8516 1456.83 67.0017 1457.64 68.6627C1458.45 70.3238 1460.59 71.0428 1462.34 70.1908C1463.11 69.8122 1463.69 69.1846 1464.05 68.5013C1464.35 67.9031 1465.1 67.6423 1465.78 67.9497C1466.36 68.256 1466.61 68.9883 1466.33 69.6617C1465.72 70.7827 1464.75 71.8464 1463.45 72.4775Z" fill="white"/>
<path d="M1469.29 62.0403L1471.71 66.8982C1472.04 67.5645 1471.76 68.3473 1471.09 68.6782C1470.55 68.9451 1469.91 68.7824 1469.51 68.3627C1469.45 68.2874 1469.37 68.1906 1469.32 68.0832L1463.02 55.4012C1462.69 54.7349 1462.97 53.9521 1463.62 53.6318C1464.28 53.3009 1465.08 53.5499 1465.41 54.2162L1467.27 57.9563C1467.77 57.2493 1468.42 56.607 1469.26 56.1906C1471.86 54.8989 1475 55.9913 1476.28 58.5707L1478.69 63.4285C1479.02 64.0949 1478.76 64.867 1478.1 65.1979C1477.43 65.5289 1476.66 65.2692 1476.33 64.6029L1473.92 59.745C1473.29 58.4768 1471.74 57.9575 1470.44 58.5766C1469.18 59.2279 1468.69 60.7615 1469.29 62.0403Z" fill="white"/>
<path d="M1489.39 47.4234L1491.53 51.6377L1493.66 55.8306C1493.98 56.451 1493.72 57.2255 1493.1 57.541C1492.55 57.8239 1491.91 57.635 1491.52 57.1869C1491 58.1779 1490.22 59.0097 1489.15 59.5537C1487.69 60.2935 1486.12 60.3364 1484.72 59.8415C1483.29 59.3253 1482.09 58.2709 1481.35 56.8163C1480.6 55.3402 1480.46 53.7418 1480.89 52.3114C1481.31 50.8595 1482.25 49.5972 1483.71 48.8574C1484.78 48.3135 1485.92 48.1876 1487.03 48.3518C1486.89 47.7517 1487.11 47.1276 1487.66 46.8448C1488.28 46.5293 1489.06 46.7816 1489.39 47.4234ZM1489.55 55.4186C1489.78 54.6013 1489.71 53.668 1489.26 52.7909C1488.8 51.8924 1488.09 51.2855 1487.31 51.0118C1486.5 50.6953 1485.62 50.7657 1484.87 51.1465C1484.1 51.5381 1483.53 52.2075 1483.33 53.0353C1483.09 53.8312 1483.18 54.7537 1483.63 55.6522C1484.08 56.5293 1484.77 57.1471 1485.57 57.4422C1486.33 57.7268 1487.21 57.6564 1487.98 57.2647C1488.73 56.8839 1489.31 56.2145 1489.55 55.4186Z" fill="white"/>
</svg>
