<svg width="52" height="52" viewBox="0 0 52 52" fill="none" xmlns="http://www.w3.org/2000/svg">
<path d="M6.5 13L13 4.33334H39L45.5 13M6.5 13V43.3333C6.5 44.4826 6.95655 45.5848 7.7692 46.3975C8.58186 47.2101 9.68406 47.6667 10.8333 47.6667H41.1667C42.3159 47.6667 43.4181 47.2101 44.2308 46.3975C45.0435 45.5848 45.5 44.4826 45.5 43.3333V13M6.5 13H45.5M34.6667 21.6667C34.6667 23.9652 33.7536 26.1696 32.1283 27.7949C30.5029 29.4202 28.2985 30.3333 26 30.3333C23.7015 30.3333 21.4971 29.4202 19.8717 27.7949C18.2464 26.1696 17.3333 23.9652 17.3333 21.6667" stroke="#F06A41" stroke-width="4" stroke-linecap="round" stroke-linejoin="round"/>
</svg>
