<?xml version="1.0" encoding="UTF-8"?><svg id="Layer_1" xmlns="http://www.w3.org/2000/svg" width="500" height="500" viewBox="0 0 500 500"><path d="M184.7,207.79c-19.4,14.26-116.11-42.09-174.17-31.93-51.74,9.06,103.27,72.21,116.11,136.43,8.71,43.54-52.25,95.79-54.6,167.29,45.89-.38,144.96-99.02,182.32-97.62,33.93,1.27,148.13,149.85,151.05,111.81,5.7-74.08-68.37-143.89-49.46-171.32,4.4-6.38,171.47-43.88,135.02-63.34-58.09-31.01-148.26-35.76-166.95-58.58-23.9-29.18-17.42-222.07-66.76-137.88-17.37,29.64-66.75,140.86-72.57,145.14Z" style="fill:#f26938;"/></svg>