<?xml version="1.0" encoding="UTF-8"?><svg id="Layer_1" xmlns="http://www.w3.org/2000/svg" width="70" height="70" viewBox="0 0 70 70"><path d="M39.58,20.43c.85.49,5.49-1.79,5.91-.18.51,1.96-2.84,2.22-3.02,4.01-.19,1.89,3,4.75,2.02,7.23-.92.92-6.7-2.17-8.24-2.01-1.4.15-3.99,3.95-5.5,3.51-1.87-.56.54-5.45-.33-6.44-.2-.23-4.26-.74-3.94-2.3s4.55-1.33,5.25-2.25c.9-1.19.65-8.29,4.02-6.04,1.15.77,3.56,4.32,3.81,4.46Z" style="fill:#f26938;"/><path d="M24.07,35.92c.69.42,3-.48,3.41.87.29.97-.95,1.99-.95,2.95,0,.79.82,1.61.96,2.54.67,4.4-3.05,1.94-4.41,2.79-.18.12-.68,2.25-1.79,2.95-3.88,2.43-2.21-3.36-2.86-4.45-.2-.34-2.97-.95-3.69-1.56-3.15-2.67,3.73-3.11,4.52-4.02s.89-6,2-5.99c1.3.33,2.61,3.79,2.82,3.91Z" style="fill:#f26938;"/><path d="M46,43.5c.11,3.29-1.36,5.58-.5,9-3.34-1.07-3.19.72-5.15,1.63-2.83,1.32-2.23-3.3-2.96-4.02-.55-.55-3.09-.23-3.41-2.37-.18-1.18,2.09-1.25,2.42-1.84.51-.91-.73-4.52,1.77-3.83.88.24,1.31,1.81,2.59,1.93s3.62-1.03,5.24-.5Z" style="fill:#f26938;"/></svg>