<?xml version="1.0" encoding="UTF-8"?><svg id="Layer_1" xmlns="http://www.w3.org/2000/svg" width="70" height="70" viewBox="0 0 70 70"><path d="M31.37,13.62c-10.99,1.84-9.52,19.33,2.85,17.35,10.52-1.69,9.77-19.47-2.85-17.35ZM33.2,28.47c-8.31.98-8.84-10.91-1.83-12.35,9.5-1.95,10.32,11.35,1.83,12.35Z" style="fill:#f26938;"/><path d="M32,23.78c.49-.25,2.38-.73,2.48-.82.06-.06-.2-1.62-.23-1.7-1.04-2.72-5.44-.23-2.25,2.52Z" style="fill:#f26938;"/><path d="M47.37,31.12c-14.42,2.42-6.96,26.56,6.8,17.8,9.81-6.24,4.19-19.64-6.8-17.8ZM44.17,46.33c-5.64-5.21-.43-15.31,8.31-12.06,10.31,3.83-.68,19.11-8.31,12.06Z" style="fill:#f26938;"/><path d="M51.47,39.56c-1.12-.51-3.36-.97-4.47-.32-.83.48.8,1.76.02,2.74,1.6-.4,1.41.94,1.5,1,1.08.76.92-.99,1.27-.99.51,0,2.33,1.14,1.93-.47-.14-.55-.77-.92-.25-1.95Z" style="fill:#f26938;"/><path d="M21.36,37.11c-2.95.6-6.07,4.68-6.36,7.63-1.51,15.25,21.17,13.52,18.28-.28-1.21-5.78-6.24-8.51-11.91-7.36ZM25.21,52.95c-10.05,1.28-9.77-13.24-1.97-13.7,8.3-.49,11.38,12.5,1.97,13.7Z" style="fill:#f26938;"/><path d="M23.07,44.08c-.19.07-1.25,1.63-1.08,2.17.1.34,1.58-.17.51,1.74,1.15-1.01,2.49,1.57,2.99,1,.08-.09.82-2.14.82-2.26,0-.27-.72-1.29-1-1.56-.42-.41-1.63-1.33-2.24-1.1Z" style="fill:#f26938;"/></svg>