<?xml version="1.0" encoding="UTF-8"?><svg id="Layer_1" xmlns="http://www.w3.org/2000/svg" width="70" height="70" viewBox="0 0 70 70"><path d="M46.5,24c6.36-2.41,7.63,1.69,1,3.01.58,2.62,4.33,3.22,3.5,6.49-3.66.91-3.81-3.33-6.5-4-.22,1.25-.69,3.89-1.47,4.78-.53.61-2.19,1.07-2.53.72-.76-.77,1.2-5.29.99-5.5-1.48-.12-4.68,2.59-5.78,1.03-1.27-3.67,4.09-2.73,5.77-4.78-1.05-.91-7.49-5.77-5.99-7.25,1.89-1.86,7.16,5.1,7.99,4.5.93-1.78.8-7.41,3.7-6.46,1.98.65-.71,5.94-.69,7.45Z" style="fill:#f26938;"/><path d="M41,51.5c5.53-2.24,5.36,2.31.5,3.01.51,2.11,3.07,2.88,2.5,5.49-2.44,1.52-4.42-3.79-5.49-3-.22.16-1.47,4.39-3.5,4l.5-4.49c-.56-.41-3.8,1.74-4.03-.76s3.8-1.89,4.04-3l-2.5-4.48c1.9-2.11,3.41.49,4.75,1.73,1.64-1.39.71-5.41,3.44-4.43,2.32.83-.64,5.31-.18,5.94Z" style="fill:#f26938;"/><path d="M24.99,34c5.16-.95,5.47,3.24.5,3,2.26,4.91,0,6.05-3.25,2.01-2.93,5.96-6.39,4.58-3.25-1.51-5.93.91-6.98-3.56-.5-3.01.25-.22-3.07-6.18.99-4.24.85.41,1.24,1.95,2.5,1.74l1.82-3.47c3.78.32.96,3.11,1.19,5.47Z" style="fill:#f26938;"/></svg>