<?xml version="1.0" encoding="UTF-8"?><svg id="Layer_1" xmlns="http://www.w3.org/2000/svg" width="70" height="70" viewBox="0 0 70 70"><path d="M46.48,18.73c-2.16-1-7.22,4.43-7.98,3.77.52-4.5-11.15-9.92-12.4-5.65-1.68,5.71,3.22,9.92,8.4,10.66-2.3,5.26-4.78,10.54-5.07,16.43-6.44,1.29-9.6,9.91-3.29,13.67,7.68,4.57,16.62-5.42,9.1-12.1-2.02-1.8-3.3-.44-2.63-4.63,1.04-6.47,5.56-14.33,10.92-18.08.76-.53,6.34-2.48,2.94-4.06ZM30.17,55.85c-4.87.25-6-7.57-.82-8.75,7.34-1.67,7.29,8.41.82,8.75ZM36,24.5c-1.04,1.06-8.92-2.67-6.99-5.99,2.16-.99,8.44,4.52,6.99,5.99Z" style="fill:#f26938;"/></svg>