<?xml version="1.0" encoding="UTF-8"?><svg id="Layer_1" xmlns="http://www.w3.org/2000/svg" width="70" height="70" viewBox="0 0 70 70"><path d="M38,38.5c-.57-1.03-1.69-8.08.74-7.49,1.93,1.67.87,4.32,1.76,6.5.67.5,4.2-6.78,5.99-5,1.23,1.23-3.84,6.74-3.5,6.99l7.25-.5c.97,3.86-4.85,1.67-6.74,3.75,4.99,3.35,3.86,6.59-1.51,2.75-.38,1.87,2.14,5.17,0,6.28s-2.53-4.99-3.01-6.27c-1.81.83-2.55,6.4-4.93,4.93-1.9-1.18,2.55-5.87,1.93-6.43-.82.18-6.19.2-4.99-1.49.63-.88,5.03-.95,4.99-1.76l-18.28-14.21-.71-2.54,2.49.26c5.32,4.18,10.59,9,16.06,12.94.48.34,2.01,1.66,2.45,1.3Z" style="fill:#f26938;"/></svg>