<?xml version="1.0" encoding="UTF-8"?><svg id="Layer_1" xmlns="http://www.w3.org/2000/svg" width="70" height="70" viewBox="0 0 70 70"><path d="M38.33,37.34c1.91.14,7.34-7.49,8.43-4.17.33,1.02-3.55,20.31-4.41,20.94s-1.94.08-2-.98c-.13-2.18,4.15-15.55,3.47-16.3-2.26-.12-6.02,6.58-7.54,4.17-1.3-2.08-.07-13.95-1.21-17.17-1.26-.03-4.43,16.75-5.72,18.28-2.01,2.37-5.05-3.2-6.78-4.27-.11,4.39,1.32,9,1.78,13.47.6.57,9.85-1.91,13.45.8.59.44,1.19.86,1.02,1.73-5.58-.86-10.45-.95-15.96.48-.53-.39-2.3-10.74-2.47-12.29-.14-1.27-.82-7.08-.01-7.64,3.47-.45,4.89,3.44,7.44,4.95,1.63-5.3,2.67-10.82,4.77-15.98,6.13-15.08,4.94,4.28,5.21,8.75.11,1.74.82,3.43.52,5.23Z" style="fill:#f26938;"/><path d="M49.33,30.84c-1.38-1.35,5.05-4.8,5.49-2.74.32,1.5-4.77,3.46-5.49,2.74Z" style="fill:#f26938;"/><path d="M39.58,10.84c2.62-.55.06,5.53-2,4.99-1.87-.82,1.34-4.85,2-4.99Z" style="fill:#f26938;"/><path d="M50.71,32.92c-2.37,1.26,3.51,4.27,4.74,2.54.91-1.83-4.15-2.86-4.74-2.54Z" style="fill:#f26938;"/><path d="M14.08,29.84c1.08.16,4.49,2.08,4.24,3.24-.64,2.98-6.98-2.71-4.24-3.24Z" style="fill:#f26938;"/><path d="M34.82,15.84c-1.58,1.56-4.92-3.86-2.74-4.49,1.93-.56,3.2,4.05,2.74,4.49Z" style="fill:#f26938;"/><path d="M22.32,26.34c.2.21.42,5.91-1.74,4.99-1.88-.79.28-6.53,1.74-4.99Z" style="fill:#f26938;"/></svg>