<?xml version="1.0" encoding="UTF-8"?><svg id="Layer_1" xmlns="http://www.w3.org/2000/svg" width="70" height="70" viewBox="0 0 70 70"><path d="M37,33c.94.93-4.01,6.55-4.98,7.27-.56.42-.9.93-1.76.73-.65-.58-.91-.6-.52-1.5.21-.48,4.54-5.6,5.02-5.99.55-.45,1.93-.82,2.24-.51Z" style="fill:#f26938;"/><path d="M43.38,43.89c-.29.26-6.65,2.46-7.26,2.53-1.56.18-2.44-1.25-.98-2.03s7.02-2.94,8.38-2.15c.65.38.18,1.37-.14,1.65Z" style="fill:#f26938;"/><path d="M25.99,28c1.23.85-.97,10.57-2.99,8.5-.35-.36.56-10.18,2.99-8.5Z" style="fill:#f26938;"/></svg>