<?xml version="1.0" encoding="UTF-8"?><svg id="Layer_1" xmlns="http://www.w3.org/2000/svg" width="70" height="70" viewBox="0 0 70 70"><path d="M52.42,47.91c-.36.22-2.01.22-2.34.02-1.17-.72,1.46-6.25,1.46-8.18.07-17.4-23.23-25.4-32.46-10.92-3.97,6.24-2.1,9.04-2.06,15.44.02,3.28-3.1,1.75-3.52-2.02-3.51-31.68,41.39-30.73,41.04-2.49-.02,1.34-1.26,7.64-2.12,8.16Z" style="fill:#f26938;"/><path d="M43.04,46.96c-1.1-.65.77-3.77.93-4.74,1.6-10.15-7.07-18.81-16.99-13.49-6.44,3.45-5.85,10.55-4.97,16.78-2.96.84-3.26-1.76-3.5-4.26-1.98-20.8,26.51-23.8,28.49-3.49.21,2.13.1,11.58-3.95,9.2Z" style="fill:#f26938;"/><path d="M30.37,30.11c7.96-1.25,11.13,6.93,10.09,13.6-.24,1.56-1.18,3.09-2.76,1.82-1.24-1-.17-2.73-.18-4.27-.04-4.78-2.49-10.04-8.03-7.52s-1.7,8.17-2.55,10.92c-.81,2.59-3.11-.41-3.4-2.46-.75-5.27.87-11.15,6.83-12.09Z" style="fill:#f26938;"/></svg>